<?xml version="1.0" encoding="UTF-8"?>
<svg version="1.1" xmlns="http://www.w3.org/2000/svg" width="48" height="48">
<path d="M0 0 C1.29997925 0.00303635 1.29997925 0.00303635 2.6262207 0.00613403 C3.51027588 0.00517731 4.39433105 0.00422058 5.30517578 0.00323486 C7.178142 0.00255302 9.05111056 0.0044076 10.92407227 0.00857544 C13.80140458 0.01392364 16.67858078 0.0086306 19.5559082 0.00222778 C21.37101272 0.00288856 23.18611713 0.00416972 25.0012207 0.00613403 C25.86787354 0.0041098 26.73452637 0.00208557 27.62744141 0 C33.69877061 0.02399644 33.69877061 0.02399644 34.8137207 1.13894653 C34.91384472 3.34545309 34.9445325 5.5551704 34.9465332 7.76394653 C34.94748993 8.42604126 34.94844666 9.08813599 34.94943237 9.77029419 C34.95011397 11.17247614 34.94826112 12.57466124 34.9440918 13.97683716 C34.93874317 16.12990367 34.9440374 18.28276156 34.95043945 20.43582153 C34.94977867 21.795197 34.9484975 23.15457233 34.9465332 24.51394653 C34.94540527 25.75918091 34.94427734 27.00441528 34.94311523 28.28738403 C34.8137207 31.13894653 34.8137207 31.13894653 33.8137207 32.13894653 C30.868365 32.24005006 27.94694511 32.27863933 25.0012207 32.27175903 C23.67513794 32.27319412 23.67513794 32.27319412 22.32226562 32.2746582 C20.44929941 32.27534005 18.57633084 32.27348546 16.70336914 32.26931763 C13.82603683 32.26396943 10.94886062 32.26926247 8.0715332 32.27566528 C6.25642869 32.2750045 4.44132427 32.27372334 2.6262207 32.27175903 C1.75956787 32.27378326 0.89291504 32.2758075 0 32.27789307 C-6.0713292 32.25389663 -6.0713292 32.25389663 -7.1862793 31.13894653 C-7.28640331 28.93243997 -7.31709109 26.72272267 -7.3190918 24.51394653 C-7.32004852 23.85185181 -7.32100525 23.18975708 -7.32199097 22.50759888 C-7.32267256 21.10541692 -7.32081972 19.70323183 -7.31665039 18.30105591 C-7.31130176 16.1479894 -7.31659599 13.99513151 -7.32299805 11.84207153 C-7.32233726 10.48269607 -7.32105609 9.12332074 -7.3190918 7.76394653 C-7.31796387 6.51871216 -7.31683594 5.27347778 -7.31567383 3.99050903 C-7.08045308 -1.19322364 -4.58313518 0.01811447 0 0 Z " fill="#2296F3" transform="translate(10.186279296875,7.861053466796875)"/>
<path d="M0 0 C7 0 7 0 8.9375 1.1875 C10.36405327 3.62103204 10.35571424 5.22542896 10 8 C8 10 8 10 5.375 10.125 C4.59125 10.08375 3.8075 10.0425 3 10 C3 11.98 3 13.96 3 16 C2.01 16 1.02 16 0 16 C0 10.72 0 5.44 0 0 Z " fill="#F8FBFE" transform="translate(23,16)"/>
<path d="M0 0 C1.32 0 2.64 0 4 0 C4.67184618 2.10251861 5.33730968 4.20707763 6 6.3125 C6.37125 7.48425781 6.7425 8.65601563 7.125 9.86328125 C8 13 8 13 8 16 C7.01 16 6.02 16 5 16 C4.67 15.34 4.34 14.68 4 14 C1.47266765 13.34444881 1.47266765 13.34444881 -1 13 C-1 13.99 -1 14.98 -1 16 C-1.99 16 -2.98 16 -4 16 C-3.39891424 10.34979382 -1.92471317 5.33835539 0 0 Z " fill="#DFF0FD" transform="translate(13,16)"/>
<path d="M0 0 C0.99 0 1.98 0 3 0 C3 5.28 3 10.56 3 16 C2.01 16 1.02 16 0 16 C0 10.72 0 5.44 0 0 Z " fill="#FFFFFF" transform="translate(35,16)"/>
<path d="M0 0 C1.32 0 2.64 0 4 0 C3.67 1.65 3.34 3.3 3 5 C2.01 5 1.02 5 0 5 C0 3.35 0 1.7 0 0 Z " fill="#37A0F4" transform="translate(26,19)"/>
</svg>
