<?xml version="1.0" encoding="UTF-8"?>
<svg version="1.1" xmlns="http://www.w3.org/2000/svg" width="497" height="512">
<path d="M0 0 C2.8125 1.8125 2.8125 1.8125 5 4 C6.98077953 5.03755118 8.98529902 6.02995879 11 7 C14.67934724 8.97688684 18.3399585 10.98762843 22 13 C22 13.66 22 14.32 22 15 C22.73089844 15.11085938 23.46179688 15.22171875 24.21484375 15.3359375 C27.14313073 16.03412654 29.02882199 17.02162339 31.5625 18.625 C32.86574219 19.43324219 32.86574219 19.43324219 34.1953125 20.2578125 C35.12085938 20.83273438 36.04640625 21.40765625 37 22 C44.5763791 26.5054201 52.2462976 30.80880951 60 35 C65.16697393 37.80353159 70.12102082 40.71199229 75 44 C78.51891412 46.04488956 82.05592415 48.03807913 85.640625 49.96484375 C86.84375 50.62239583 88.046875 51.27994792 89.25 51.9375 C89.86101562 52.25912109 90.47203125 52.58074219 91.1015625 52.91210938 C95.08114023 55.11477958 97.10610177 56.87900714 99 61 C99.28920425 63.88062421 99.41645814 66.54336582 99.39872742 69.42182922 C99.40537424 70.26731313 99.41202107 71.11279704 99.41886932 71.98390168 C99.4375132 74.81531809 99.43489309 77.64631243 99.43237305 80.4777832 C99.44138935 82.50805763 99.45171624 84.53832661 99.46325684 86.56858826 C99.49086833 92.0805274 99.50011702 97.59236337 99.50611091 103.10436273 C99.51548374 108.86463537 99.54168626 114.62483062 99.56611633 120.38505554 C99.609815 131.29299164 99.63834132 142.20091274 99.66143972 153.10890979 C99.68847331 165.52721362 99.73238597 177.94543973 99.77772844 190.36368811 C99.87062298 215.90908329 99.94228172 241.45450284 100 267 C101.58500588 266.0653305 103.16793416 265.12713737 104.75 264.1875 C105.63171875 263.66542969 106.5134375 263.14335937 107.421875 262.60546875 C109.98791169 261.08391935 109.98791169 261.08391935 112.078125 259.30078125 C114 258 114 258 118 258 C118 257.34 118 256.68 118 256 C119.28913487 255.32845067 120.58140204 254.66291141 121.875 254 C122.59429687 253.62875 123.31359375 253.2575 124.0546875 252.875 C126 252 126 252 128 252 C128 251.34 128 250.68 128 250 C128.67804688 249.63648438 129.35609375 249.27296875 130.0546875 248.8984375 C134.74806208 246.36323517 139.39240908 243.79356808 143.9375 241 C147.46229409 238.85181841 151.03024215 236.97593986 154.75 235.1875 C160.26214897 232.50649369 165.31088858 229.33948982 170.36816406 225.89526367 C174.69086295 223 174.69086295 223 178 223 C177.99723462 222.17062613 177.99723462 222.17062613 177.99441338 221.32449722 C177.9502441 207.87064438 177.91727584 194.41680425 177.89637566 180.96289444 C177.88592931 174.45668083 177.87175449 167.95051947 177.84912109 161.44433594 C177.8274232 155.16794062 177.81543779 148.89159563 177.81024551 142.61516571 C177.80654427 140.21812904 177.79931689 137.82109519 177.78853989 135.4240799 C177.77406571 132.07204694 177.77202037 128.72022314 177.77294922 125.36816406 C177.76575867 124.37266541 177.75856812 123.37716675 177.75115967 122.35150146 C177.753909 121.43727417 177.75665833 120.52304688 177.75949097 119.58111572 C177.75672559 118.39200277 177.75672559 118.39200277 177.75390434 117.17886734 C178.03377702 114.70094704 178.66644632 113.10040751 180 111 C182.125 110.25 182.125 110.25 184 110 C184 109.34 184 108.68 184 108 C185.28913487 107.32845067 186.58140204 106.66291141 187.875 106 C188.59429687 105.62875 189.31359375 105.2575 190.0546875 104.875 C192 104 192 104 194 104 C194 103.34 194 102.68 194 102 C194.52464844 101.75507812 195.04929687 101.51015625 195.58984375 101.2578125 C206.21393186 96.13138063 216.26072399 89.90447998 226.3125 83.75 C230.79767123 81.03750292 235.45670949 78.75234627 240.1640625 76.453125 C243.34968621 74.82082194 246.32036457 72.98685822 249.28125 70.98046875 C251.16392289 69.90648944 252.88450307 69.43145003 255 69 C255 68.34 255 67.68 255 67 C256.01320313 66.46890625 257.02640625 65.9378125 258.0703125 65.390625 C259.42196459 64.67725306 260.77352207 63.96370183 262.125 63.25 C262.79015625 62.90195312 263.4553125 62.55390625 264.140625 62.1953125 C267.29818892 60.52366101 270.23639644 58.83591648 273.1796875 56.79296875 C276.00729957 54.99535941 277.70534414 54.36345414 281 54.0625 C281.804375 53.97097656 282.60875 53.87945312 283.4375 53.78515625 C289.77330485 54.3163594 295.82673764 59.15165039 301.25 62.3125 C302.0968335 62.80451904 302.94366699 63.29653809 303.81616211 63.8034668 C310.45277121 67.66572955 317.04641951 71.59347274 323.60546875 75.5859375 C327.03169459 77.66090441 330.41598746 79.70799373 334 81.5 C339.40665127 84.20332563 344.49585085 87.47541508 349.65625 90.6171875 C350.5121875 91.13539062 351.368125 91.65359375 352.25 92.1875 C353.01828125 92.65542969 353.7865625 93.12335938 354.578125 93.60546875 C356.25458187 94.57078343 357.96543937 95.47782961 359.69921875 96.3359375 C364.08118587 98.54507122 368.31423013 100.98316311 372.5625 103.4375 C373.39974609 103.91509766 374.23699219 104.39269531 375.09960938 104.88476562 C375.91365234 105.35462891 376.72769531 105.82449219 377.56640625 106.30859375 C378.29802979 106.72939209 379.02965332 107.15019043 379.78344727 107.58374023 C380.51490967 108.05110596 381.24637207 108.51847168 382 109 C382.85639069 109.45461105 383.71278137 109.90922211 384.59512329 110.37760925 C388.41917403 114.54753416 387.72150395 118.90670869 387.69458008 124.37451172 C387.70816055 125.53588654 387.72174103 126.69726135 387.73573303 127.89382935 C387.77308374 131.7394307 387.77306142 135.58392067 387.76953125 139.4296875 C387.77773964 141.42522287 387.78595874 143.42075863 387.79580516 145.41628659 C387.82612908 151.69153185 387.82945909 157.96640572 387.81665039 164.24169922 C387.80397383 170.70879179 387.83912899 177.1743911 387.89753419 183.64119899 C387.94589311 189.19895549 387.96320293 194.75623428 387.95605963 200.31419575 C387.95218368 203.63142681 387.96378807 206.94728423 387.99866676 210.26436996 C388.03312736 213.96633848 388.01678502 217.66476014 387.98754883 221.36669922 C388.00845581 222.46093201 388.02936279 223.55516479 388.05090332 224.68255615 C387.92009003 231.94831477 387.92009003 231.94831477 385.25549889 234.99400711 C383.23184272 236.54291163 381.25014209 237.80957674 379 239 C378.03835938 239.52207031 377.07671875 240.04414063 376.0859375 240.58203125 C375.19132812 240.98808594 374.29671875 241.39414063 373.375 241.8125 C367.91438116 244.43193391 362.92325117 247.48695823 357.89599609 250.84106445 C354.36898614 253.18226044 350.79950855 255.14121078 347 257 C345.32260138 257.98189187 343.65532623 258.98133771 342 260 C338.40131959 262.18491311 334.76582718 264.11708641 331 266 C327.64002773 267.95606777 324.32075721 269.97824487 321 272 C315.74321259 275.20045586 310.53302136 278.29496733 305 281 C302.63504691 282.2825947 300.29820994 283.60129436 298 285 C296.47748375 285.7042511 296.47748375 285.7042511 294.92420959 286.42272949 C291.70637468 289.25878852 291.56017053 289.58192049 291.27415466 293.59216309 C291.2542427 295.52686423 291.26750514 297.46207168 291.30639648 299.39648438 C291.30379822 300.4537825 291.30119995 301.51108063 291.29852295 302.60041809 C291.29680742 304.89597886 291.30894609 307.19158202 291.33325005 309.48701477 C291.3713507 313.11823887 291.37317045 316.74787561 291.36549377 320.37927246 C291.35615385 328.08642882 291.39513073 335.79298196 291.4375 343.5 C291.4821529 352.42961003 291.5071983 361.35868569 291.49293709 370.28840637 C291.49606176 373.86959022 291.52983176 377.44964758 291.56504822 381.03063965 C291.56616956 383.22159804 291.56596198 385.41255765 291.56420898 387.60351562 C291.58226089 388.60208084 291.60031281 389.60064606 291.61891174 390.62947083 C291.57012687 397.38966543 291.57012687 397.38966543 288.65614319 400.50915527 C287.77961594 401.00113403 286.90308868 401.49311279 286 402 C284.989375 402.7425 283.97875 403.485 282.9375 404.25 C280 406 280 406 276 406 C276 406.66 276 407.32 276 408 C274.98292969 408.54527344 274.98292969 408.54527344 273.9453125 409.1015625 C267.52284987 412.57075976 261.23242313 416.20165709 255 420 C253.25135587 421.06472998 251.50136727 422.12725524 249.75 423.1875 C248.98171875 423.65542969 248.2134375 424.12335938 247.421875 424.60546875 C244.66842216 426.19092466 241.84185755 427.57907123 239 429 C236.40026928 430.40859536 233.82425055 431.85795757 231.25 433.3125 C230.54770264 433.70840332 229.84540527 434.10430664 229.12182617 434.51220703 C222.80273653 438.0872427 216.5218148 441.73026762 210.41796875 445.6640625 C208 447 208 447 205 447 C205 447.66 205 448.32 205 449 C204.42636719 449.30550781 203.85273438 449.61101562 203.26171875 449.92578125 C191.06996417 456.49341839 179.10449795 463.48599512 167.265625 470.66796875 C163.72541 472.74937102 160.09967724 474.66960176 156.48046875 476.609375 C154.40602873 477.77236815 152.49330358 478.99377023 150.5625 480.375 C148 482 148 482 144 482 C144 482.66 144 483.32 144 484 C142.71086513 484.67154933 141.41859796 485.33708859 140.125 486 C139.40570313 486.37125 138.68640625 486.7425 137.9453125 487.125 C136 488 136 488 134 488 C134 488.66 134 489.32 134 490 C132.98292969 490.54527344 132.98292969 490.54527344 131.9453125 491.1015625 C126.33434636 494.13241679 120.8159734 497.25942556 115.38671875 500.60546875 C113.65101714 501.61961847 111.86969223 502.556876 110.06640625 503.4453125 C106.97653008 505.0118994 104.16002296 506.81171493 101.25 508.6875 C95.68384596 511.9172437 91.3719259 513.64140811 85 512 C81.42683879 510.3181963 78.25031544 508.23114874 75 506 C73.82143234 505.29729752 72.63476153 504.60785611 71.4375 503.9375 C70.303125 503.298125 69.16875 502.65875 68 502 C67.2678125 501.59910156 66.535625 501.19820313 65.78125 500.78515625 C62.47600351 498.97277942 59.25318628 497.17062553 56.125 495.0625 C53.47665716 493.31459373 50.85451844 491.80925215 48.0625 490.3125 C42.69998976 487.43290546 37.49337042 484.33525243 32.30297852 481.15942383 C28.61253774 478.91450868 24.87645139 476.91429698 21 475 C19.40538935 474.0818129 17.82152889 473.14465602 16.25 472.1875 C15.3940625 471.66929687 14.538125 471.15109375 13.65625 470.6171875 C11.88541667 469.5390625 10.11458333 468.4609375 8.34375 467.3828125 C4.9342975 465.31865602 1.56620553 463.28310276 -2 461.5 C-4.58650932 460.20674534 -6.99749608 458.81828101 -9.46484375 457.31640625 C-15.10460751 453.91576481 -20.82321771 450.66655942 -26.5625 447.4375 C-28.02719727 446.61088867 -28.02719727 446.61088867 -29.52148438 445.76757812 C-33.97457973 443.2565685 -38.43323074 440.75660119 -42.90625 438.28125 C-45.9497973 436.59326362 -48.96110361 434.86716916 -51.9375 433.0625 C-52.77023438 432.55976563 -53.60296875 432.05703125 -54.4609375 431.5390625 C-56.15364583 430.51302083 -57.84635417 429.48697917 -59.5390625 428.4609375 C-64.0903514 425.71325535 -68.6672592 423.04078534 -73.32421875 420.4765625 C-82.25440127 415.54866616 -91.16572417 410.58823661 -99.875 405.27734375 C-101.9133365 404.05209368 -103.97922817 402.89663954 -106.0625 401.75 C-109 400 -109 400 -110 398 C-110.10334593 396.15672593 -110.14193051 394.30969825 -110.15098095 392.46355152 C-110.15913899 391.27953182 -110.16729702 390.09551212 -110.17570227 388.87561303 C-110.17961063 387.56329113 -110.18351899 386.25096923 -110.18754578 384.89888 C-110.19513656 383.4997084 -110.20313762 382.10053896 -110.21151572 380.70137185 C-110.23324433 376.8428822 -110.24852989 372.9843896 -110.26265609 369.12586558 C-110.27554338 365.81967031 -110.2921002 362.51349738 -110.30863335 359.20731864 C-110.46469289 327.87413422 -110.53964498 296.5404335 -110.60025311 265.20693684 C-110.60828212 261.12794784 -110.61645039 257.04895915 -110.62475586 252.9699707 C-110.62681346 251.95612886 -110.62887106 250.94228701 -110.63099102 249.89772268 C-110.66541741 233.47093618 -110.73807453 217.04453959 -110.82566347 200.61795983 C-110.91480209 183.76147723 -110.96617439 166.90519698 -110.98155528 150.04848355 C-110.99121928 140.58054095 -111.01803716 131.11330078 -111.08786583 121.64559364 C-111.1473074 113.58278659 -111.17308407 105.5207752 -111.15452697 97.45775423 C-111.14612688 93.34289222 -111.15401197 89.22974721 -111.205513 85.1151619 C-111.2523091 81.34709124 -111.25286451 77.581932 -111.21677623 73.81376972 C-111.20952951 71.80672278 -111.25160708 69.79968455 -111.29547518 67.79310399 C-111.14871231 59.23451454 -111.14871231 59.23451454 -107.83792651 55.67643201 C-105.29367178 53.85623252 -102.80167052 52.38476511 -100 51 C-99.25261352 50.60525193 -98.50522704 50.21050386 -97.73519248 49.80379373 C-96.47867112 49.15266555 -95.2094288 48.52560193 -93.9296875 47.92138672 C-90.53142158 46.29878353 -87.27609639 44.41639962 -84 42.5625 C-83.29866943 42.16708008 -82.59733887 41.77166016 -81.87475586 41.36425781 C-77.7761748 39.04183987 -73.74365538 36.64842128 -69.77734375 34.10546875 C-67.02670835 32.39463398 -64.17900813 30.86649421 -61.33984375 29.30859375 C-58.07463815 27.4824771 -54.88125316 25.54427761 -51.6796875 23.609375 C-45.62523538 19.97317344 -39.51847187 16.42120993 -33.375 12.9375 C-30.53645721 11.30796618 -27.73602595 9.63408037 -24.9375 7.9375 C-21.36291329 5.78079647 -17.75392463 3.83118275 -14 2 C-9.55002923 -0.96664718 -5.22059321 -0.63815793 0 0 Z M-11.5625 21.5625 C-15.13553653 23.83101146 -18.7129649 25.98832417 -22.4375 28 C-23.35273437 28.495 -24.26796875 28.99 -25.2109375 29.5 C-27.0703125 30.5 -28.9296875 31.5 -30.7890625 32.5 C-36.96393361 35.8396486 -43.00587171 39.34688559 -49 43 C-54.25665542 46.20071908 -59.46699678 49.2949762 -65 52 C-68.46383532 53.878556 -71.79256121 55.86029633 -75.0625 58.0625 C-77.95302279 59.96901503 -80.87668007 61.5127048 -84 63 C-82.24835819 66.50328362 -77.82176727 67.63803029 -74.3671875 69.2578125 C-70.46845972 71.13314991 -67.34761109 73.2895149 -64 76 C-62.01496344 77.02938324 -60.01236039 78.02511249 -58 79 C-54.89273126 80.72955849 -51.82245383 82.52197908 -48.75 84.3125 C-47.90606689 84.80234375 -47.06213379 85.2921875 -46.19262695 85.796875 C-41.83622549 88.33016466 -37.49723292 90.88784127 -33.1875 93.5 C-30.81155004 94.93947399 -28.48848721 96.25575639 -26 97.5 C-23.23373945 98.88313027 -20.64215512 100.39583439 -18 102 C-11.96918786 106.3202324 -11.96918786 106.3202324 -5.16015625 107.73828125 C-2.52429035 106.83741569 -0.24343001 105.61104018 2.1875 104.25 C3.16589844 103.70472656 4.14429687 103.15945312 5.15234375 102.59765625 C6.09207031 102.07042969 7.03179687 101.54320313 8 101 C8.72316406 100.60683594 9.44632812 100.21367188 10.19140625 99.80859375 C15.00018132 97.18977317 19.6900265 94.3944049 24.375 91.5625 C31.76837074 87.09484321 39.2526221 82.82916379 47 79 C47 78.34 47 77.68 47 77 C47.78632813 76.78601563 48.57265625 76.57203125 49.3828125 76.3515625 C54.21191181 74.54716902 58.45099169 72.00008927 62.875 69.375 C63.75414062 68.859375 64.63328125 68.34375 65.5390625 67.8125 C67.6957056 66.54664427 69.84917988 65.27571593 72 64 C69.49587987 61.38547053 67.09018695 59.8196142 63.875 58.125 C62.885 57.59648438 61.895 57.06796875 60.875 56.5234375 C59.92625 56.02070312 58.9775 55.51796875 58 55 C51.31476421 51.3870233 44.78032919 47.52726969 38.23779297 43.66430664 C33.20139261 40.69473621 28.13455702 37.79695552 23 35 C15.87303945 31.09865845 8.91006586 26.96103208 1.953125 22.765625 C-4.77794095 18.72576813 -4.77794095 18.72576813 -11.5625 21.5625 Z M273 78 C266.06372776 82.35304714 259.0996029 86.56610224 251.8828125 90.4375 C244.42387305 94.48028561 237.06679252 98.72636549 229.8125 103.125 C225.50792318 105.72891614 221.12179069 108.15317497 216.6953125 110.54296875 C212.77764185 112.66078202 208.88888289 114.82990732 205 117 C205 117.66 205 118.32 205 119 C206.28913487 119.67154933 207.58140204 120.33708859 208.875 121 C209.59429687 121.37125 210.31359375 121.7425 211.0546875 122.125 C212.94848977 123.13673746 212.94848977 123.13673746 215 123 C215 123.66 215 124.32 215 125 C215.52464844 125.24492188 216.04929687 125.48984375 216.58984375 125.7421875 C223.03868032 128.85393892 229.17142433 132.39948671 235.3203125 136.05517578 C240.32122913 139.02474469 245.35868943 141.91586393 250.4375 144.75 C254.70224704 147.13224501 258.94518154 149.53278932 263.125 152.0625 C263.888125 152.51496094 264.65125 152.96742188 265.4375 153.43359375 C267.4727821 154.67772198 269.4528607 155.96404947 271.4375 157.28515625 C277.48964806 161.5561318 277.48964806 161.5561318 284.4609375 162.72265625 C286.53804413 161.66818641 288.19889802 160.47054679 290 159 C291.010625 158.505 292.02125 158.01 293.0625 157.5 C299.07027271 154.43220117 304.8115244 150.92175493 310.5859375 147.44140625 C312.58599371 146.24719793 314.596132 145.08163332 316.625 143.9375 C319.04822679 142.54638833 321.39739115 141.12514532 323.75 139.625 C326.75489493 137.73048529 329.8081162 135.99318268 332.9375 134.3125 C338.77295102 131.17348632 344.46793044 127.81361513 350.16186523 124.42700195 C350.85997314 124.01281006 351.55808105 123.59861816 352.27734375 123.171875 C353.20921509 122.6164502 353.20921509 122.6164502 354.15991211 122.04980469 C356.07372576 120.95793807 358.02095374 119.96778889 360 119 C360 118.34 360 117.68 360 117 C359.31035156 116.62488281 358.62070312 116.24976563 357.91015625 115.86328125 C354.93855942 114.24500424 351.96918636 112.62269487 349 111 C348.16726563 110.54753906 347.33453125 110.09507813 346.4765625 109.62890625 C342.16804344 107.26877892 338.07705919 104.74758336 334 102 C329.75731205 99.54370698 325.48292849 97.14602905 321.20410156 94.75341797 C315.22890992 91.40991485 309.29273927 88.02338412 303.4375 84.47265625 C300.55425997 82.73069873 297.65506932 81.01780417 294.75 79.3125 C293.79609375 78.75175781 292.8421875 78.19101563 291.859375 77.61328125 C283.11956718 72.68221481 281.34684833 72.6544104 273 78 Z M-93 80 C-93.22881845 119.13509974 -93.40506053 158.2701124 -93.51065329 197.40574727 C-93.52316057 202.02456829 -93.53610377 206.64338798 -93.54931641 211.26220703 C-93.55193951 212.18174252 -93.55456261 213.10127801 -93.55726521 214.0486782 C-93.6007953 228.94370648 -93.67964986 243.83834936 -93.77152796 258.73314889 C-93.86499724 274.01318149 -93.92057789 289.29301207 -93.94088495 304.57331884 C-93.9546162 314.00465305 -93.9980033 323.43489804 -94.07916467 332.86589698 C-94.13196842 339.33048184 -94.14801427 345.7945025 -94.13501377 352.25928743 C-94.12859886 355.99131913 -94.13852264 359.72144617 -94.19205475 363.45314026 C-94.24966379 367.49854418 -94.22991765 371.53988203 -94.20254517 375.58560181 C-94.23167358 376.76653683 -94.26080199 377.94747186 -94.29081309 379.1641928 C-94.2313254 382.4054073 -94.0882584 384.94457538 -93 388 C-89.98423664 390.81091344 -86.73525003 392.33418323 -83 394 C-81.36153997 394.97779023 -79.73440415 395.97508865 -78.125 397 C-73.47517466 399.80605573 -68.66984082 402.18808591 -63.76171875 404.5078125 C-60.87178404 406.06927652 -58.52900487 407.91453056 -56 410 C-54.01833966 411.0358679 -52.01526169 412.03112419 -50 413 C-47.64217223 414.3222953 -45.2950746 415.66151311 -42.953125 417.01171875 C-41.06739584 418.15049713 -41.06739584 418.15049713 -39 418 C-39 418.66 -39 419.32 -39 420 C-38.0821875 420.44730469 -37.164375 420.89460938 -36.21875 421.35546875 C-30.38190398 424.22211843 -24.63282131 427.06759082 -19.1796875 430.625 C-16.21721343 432.49380085 -13.17176561 434.21130891 -10.125 435.9375 C-5.98904366 438.28268631 -1.87603057 440.65577329 2.1875 443.125 C5.65771978 445.22885647 9.17673153 447.20130231 12.75 449.125 C16.65507039 451.22857519 20.32113307 453.5189037 24 456 C27.80118496 458.23546646 27.80118496 458.23546646 32 459 C32 459.66 32 460.32 32 461 C32.73089844 461.27457031 33.46179688 461.54914063 34.21484375 461.83203125 C36.84953597 462.93690218 39.13538728 464.18852176 41.5625 465.6875 C50.05412349 470.86562649 58.6341103 475.85739601 67.38671875 480.58203125 C70.65509243 482.35545374 73.89174533 484.18299505 77.125 486.01953125 C79.13249565 487.13270926 79.13249565 487.13270926 82 488 C82 458.3 82 428.6 82 398 C78.37 396.02 74.74 394.04 71 392 C69.411875 391.030625 67.82375 390.06125 66.1875 389.0625 C62.1886475 386.62619752 58.076827 384.4969792 53.875 382.4375 C49.44548753 380.26420979 45.17582322 377.99798278 41.0390625 375.3046875 C37.47717375 373.02562458 33.79927358 370.94310945 30.140625 368.82421875 C28.08252871 367.62878222 26.03017931 366.42338381 23.984375 365.20703125 C18.01732977 361.66897957 11.97621029 358.45869958 5.75 355.40234375 C2.71315564 353.85372567 -0.15912325 352.16902645 -2.98925781 350.27117842 C-4.97009224 348.96779478 -4.97009224 348.96779478 -7.08105469 347.98297817 C-12.54411873 345.17219996 -12.54411873 345.17219996 -13.73925781 342.09915864 C-14.02821461 339.71626661 -14.05536646 337.44665187 -14 335.04667664 C-14.01091895 334.14402299 -14.0218379 333.24136935 -14.03308773 332.31136256 C-14.05998653 329.28548388 -14.02985009 326.26287204 -14 323.23706055 C-14.00760541 321.06884819 -14.0187237 318.90064571 -14.03309631 316.73246765 C-14.06215286 310.84415293 -14.04197122 304.95690726 -14.0130806 299.06862998 C-13.9912222 292.91595499 -14.0144622 286.76345625 -14.03295898 280.61079407 C-14.06111475 268.95896635 -14.0485953 257.30754991 -14.02153492 245.65573388 C-13.99270367 232.39099913 -14.00910633 219.1264417 -14.02934647 205.86170518 C-14.06996775 178.57436855 -14.05366086 151.28730255 -14 124 C-14.61746597 123.65741653 -15.23493195 123.31483307 -15.87110901 122.96186829 C-17.08648598 122.28718758 -17.08648598 122.28718758 -18.32641602 121.59887695 C-19.12950699 121.15316849 -19.93259796 120.70746002 -20.76002502 120.24824524 C-23.90466243 118.49586911 -27.02911653 116.70817836 -30.15234375 114.91796875 C-31.95466532 113.85168663 -31.95466532 113.85168663 -34 114 C-34 113.34 -34 112.68 -34 112 C-34.96421875 111.52949219 -35.9284375 111.05898437 -36.921875 110.57421875 C-38.19802296 109.94552821 -39.47405874 109.31660993 -40.75 108.6875 C-41.38421875 108.37876953 -42.0184375 108.07003906 -42.671875 107.75195312 C-46.05109823 106.07994163 -49.00860595 104.27419506 -52 102 C-53.8989899 101.00709957 -55.8175811 100.05115932 -57.75 99.125 C-62.0310208 97.02340797 -66.08240304 94.80038752 -70.08203125 92.2109375 C-72.85901054 90.45765119 -75.73960462 88.90948113 -78.62109375 87.3359375 C-82.12050049 85.37075342 -85.52488101 83.2544949 -88.93359375 81.13671875 C-90.89898963 79.83933922 -90.89898963 79.83933922 -93 80 Z M76.9375 81 C75.83728516 81.556875 75.83728516 81.556875 74.71484375 82.125 C74.14894531 82.41375 73.58304687 82.7025 73 83 C73 83.66 73 84.32 73 85 C72.15695313 85.24234375 71.31390625 85.4846875 70.4453125 85.734375 C66.60569429 87.14484699 63.3169554 89.08385675 59.875 91.25 C54.25301914 94.71862983 48.5803778 97.81755489 42.5859375 100.61328125 C39.75959703 102.128917 37.48270444 103.97900569 35 106 C33.11328125 107.0546875 33.11328125 107.0546875 31.3125 107.875 C27.16116781 109.85631763 23.29546612 112.20024245 19.39453125 114.6328125 C16.98945141 116.00602285 14.59189467 117.03321868 12 118 C12 118.66 12 119.32 12 120 C11.071875 120.28875 10.14375 120.5775 9.1875 120.875 C5.90208333 121.8875 5.90208333 121.8875 3 124 C2.70560918 126.67476694 2.60879511 129.11828246 2.63923645 131.7953186 C2.63667318 132.60965437 2.6341099 133.42399014 2.63146895 134.26300275 C2.62650537 137.00707601 2.64306606 139.75060587 2.65942383 142.49462891 C2.66026955 144.45548998 2.65979604 146.41635201 2.65809631 148.37721252 C2.65723277 153.7137833 2.67491646 159.0501533 2.69581819 164.38667727 C2.71452536 169.95873284 2.71633071 175.53079262 2.71989441 181.10287476 C2.72923244 191.66035258 2.75386996 202.21773761 2.78394288 212.7751745 C2.81743227 224.79190786 2.83395914 236.80864556 2.84902918 248.82541394 C2.88041801 273.55032748 2.93321259 298.27515855 3 323 C4.76458404 322.04019346 6.52884497 321.07979286 8.29296875 320.11914062 C9.27547607 319.5843811 10.2579834 319.04962158 11.27026367 318.49865723 C14.21199021 316.88361489 17.11353824 315.21173895 20 313.5 C23.73653587 311.30316633 27.49277048 309.1735068 31.3125 307.125 C36.58234612 304.28680049 41.69354168 301.21275944 46.78637695 298.07080078 C50.10506322 296.04480455 53.33523796 294.30983891 57 293 C57 292.34 57 291.68 57 291 C57.80953125 290.77441406 58.6190625 290.54882812 59.453125 290.31640625 C63.88990397 288.66971626 67.71404764 286.38468552 71.75 283.9375 C73.26538288 283.0295437 74.78099685 282.12197294 76.296875 281.21484375 C76.96041992 280.81386475 77.62396484 280.41288574 78.30761719 279.99975586 C79.51275537 279.28783421 80.74806055 278.62596972 82 278 C82 212.33 82 146.66 82 79 C80.15568588 79 78.54984601 80.1810306 76.9375 81 Z M195 134 C195 163.37 195 192.74 195 223 C204.57730092 228.82256587 204.57730092 228.82256587 210 230 C210 230.66 210 231.32 210 232 C211.28913487 232.67154933 212.58140204 233.33708859 213.875 234 C214.95394531 234.556875 214.95394531 234.556875 216.0546875 235.125 C217.94848977 236.13673746 217.94848977 236.13673746 220 236 C220 236.66 220 237.32 220 238 C220.69222656 238.24878906 221.38445312 238.49757813 222.09765625 238.75390625 C225.44373319 240.19051263 228.36050318 241.99127233 231.4375 243.9375 C235.54574062 246.53243357 239.64389206 248.85238897 244 251 C246.60035713 252.40742969 249.17569947 253.85806333 251.75 255.3125 C252.45157227 255.70767822 253.15314453 256.10285645 253.87597656 256.51000977 C258.62805334 259.1968449 263.33114104 261.95320018 267.984375 264.80859375 C269.93845827 265.96362359 271.96972212 266.98486106 274 268 C274 238.3 274 208.6 274 178 C270.04 176.02 266.08 174.04 262 172 C260.09319742 170.84341483 258.18591689 169.68647758 256.3125 168.4765625 C248.00584973 163.17265405 239.493302 158.19069125 230.8125 153.52734375 C222.48468221 149.00487603 214.30596529 144.21311087 206.19140625 139.3203125 C200.9041236 135.64647366 200.9041236 135.64647366 195 134 Z M363.5 136.625 C362.16195312 137.44291016 362.16195312 137.44291016 360.796875 138.27734375 C359.87390625 138.84582031 358.9509375 139.41429687 358 140 C352.74132572 143.20594616 347.50986731 146.24506635 342 149 C339.57472318 150.41839294 337.17266651 151.87255282 334.76953125 153.328125 C327.97110884 157.43210919 321.1165647 161.42135185 314.125 165.1875 C311.32123952 166.69905793 308.69862023 168.20519473 306.0625 170 C301.30256906 173.10852633 296.08486999 175.45756501 291 178 C291 207.7 291 237.4 291 268 C302.03132343 261.98291449 312.91674737 255.91920248 323.64453125 249.390625 C328.02611559 246.73671185 332.39477864 244.25144155 337 242 C338.7012125 241.03704953 340.40198049 240.07319551 342.09375 239.09375 C344.15325457 237.91206705 346.23137864 236.76815117 348.3125 235.625 C352.41564283 233.3532429 356.4376253 230.96299203 360.4453125 228.52734375 C363.60337288 226.6392679 366.8053636 224.82550652 370 223 C370 193.63 370 164.26 370 134 C367.22818462 134 365.8544452 135.17209869 363.5 136.625 Z M176.875 243.125 C175.54150105 243.95625299 174.20685596 244.78567005 172.87109375 245.61328125 C172.21608887 246.02143066 171.56108398 246.42958008 170.88623047 246.85009766 C168.28721619 248.43453426 165.62253858 249.87974279 162.9375 251.3125 C160.19007648 252.78289529 157.64255877 254.24336424 155.0625 256 C152.14747759 257.90368811 149.24767087 259.40540305 146.125 260.9375 C140.17360463 263.86163856 134.6664078 267.12139451 129.25 270.9375 C126.37461765 272.76226187 123.56219312 274.21311072 120.5 275.6875 C115.01724085 278.36735235 109.96351805 281.46040668 104.89648438 284.84057617 C101.36879552 287.18256961 97.80871711 289.15609727 94 291 C92.03675052 292.05338843 90.07821238 293.11561516 88.125 294.1875 C87.15820312 294.71730469 86.19140625 295.24710937 85.1953125 295.79296875 C84.47085938 296.19128906 83.74640625 296.58960938 83 297 C83 297.66 83 298.32 83 299 C82.27167969 299.10957031 81.54335937 299.21914063 80.79296875 299.33203125 C77.8272706 300.04131011 75.8838374 301.06819496 73.3125 302.6875 C72.43980469 303.22890625 71.56710938 303.7703125 70.66796875 304.328125 C69.78753906 304.87984375 68.90710938 305.4315625 68 306 C64.67552424 308.01483379 61.33820339 310.00800661 58 312 C57.05125 312.56847656 56.1025 313.13695312 55.125 313.72265625 C49.10135886 317.29134989 43.02382188 320.55337933 36.69140625 323.54296875 C33.83102291 325.09147816 31.50457992 326.93467187 29 329 C27.01922047 330.03755118 25.01470098 331.02995879 23 332 C19.32065276 333.97688684 15.6600415 335.98762843 12 338 C16.4149343 341.8992555 21.29363894 344.40350856 26.5 347.0625 C36.39091444 352.15942605 36.39091444 352.15942605 41 355 C49.09993472 359.67996228 57.24692793 364.27725879 65.40551758 368.85400391 C67.27131464 369.90095661 69.1359324 370.94997152 71 372 C71.60972656 372.34248779 72.21945313 372.68497559 72.84765625 373.0378418 C77.20458238 375.5021692 81.39370519 378.17028793 85.5703125 380.92578125 C88.69239831 382.30612466 89.77577882 382.09810431 93 381 C98.63225178 378.48107242 104.00248644 375.39892883 109.375 372.375 C110.08527344 371.98054687 110.79554688 371.58609375 111.52734375 371.1796875 C115.51896929 368.94005607 115.51896929 368.94005607 119 366 C119.7425 365.71125 120.485 365.4225 121.25 365.125 C123.81608616 364.07523748 125.81087629 362.77244645 128.07421875 361.19921875 C130.59050846 359.63227972 133.21270297 358.3651837 135.875 357.0625 C141.82639537 354.13836144 147.3335922 350.87860549 152.75 347.0625 C156.74906758 344.52463019 160.93499445 342.52270211 165.18359375 340.4375 C168.30276487 338.84546814 171.10678218 336.96985043 174 335 C178.93186978 332.20454958 183.91485237 329.50676291 189 327 C189 326.34 189 325.68 189 325 C190.423125 324.690625 190.423125 324.690625 191.875 324.375 C196.19704129 323.15260448 199.70223707 320.89680287 203.48828125 318.53125 C206.89384691 316.45507311 210.40789248 314.72953325 214 313 C214 312.34 214 311.68 214 311 C214.804375 310.773125 215.60875 310.54625 216.4375 310.3125 C220.92381264 308.65964798 224.86534403 306.3793128 229 304 C230.4985327 303.16403098 231.99851914 302.33066219 233.5 301.5 C234.24378906 301.08621094 234.98757813 300.67242187 235.75390625 300.24609375 C237.23892227 299.42223269 238.72587714 298.60185575 240.21484375 297.78515625 C245.89491818 294.66061618 251.47596664 291.3929342 257 288 C257.64839844 287.60425781 258.29679688 287.20851563 258.96484375 286.80078125 C260.34831407 285.92512592 261.68187935 284.9712468 263 284 C263 283.34 263 282.68 263 282 C261.0582147 280.57286785 261.0582147 280.57286785 258.5625 279.1875 C257.64597656 278.65511719 256.72945312 278.12273437 255.78515625 277.57421875 C252.62648816 275.78888461 249.45638261 274.02609447 246.27734375 272.27734375 C241.25070563 269.45794295 236.34208629 266.43226218 231.42578125 263.42578125 C230.58402344 262.91402344 229.74226562 262.40226562 228.875 261.875 C228.12992188 261.41867187 227.38484375 260.96234375 226.6171875 260.4921875 C224.49764325 259.28373093 222.38050384 258.17772093 220.1953125 257.09765625 C216.05326507 255.04942301 212.02082785 252.83802613 208 250.5625 C207.30302002 250.16925537 206.60604004 249.77601074 205.88793945 249.37084961 C200.12596248 246.10399941 194.51308771 242.67539181 189 239 C184.09916056 238.16327131 180.83755166 240.57464238 176.875 243.125 Z M249.97265625 312.203125 C247.04478874 313.97292665 244.06502832 315.48357523 241 317 C239.09496544 318.08821476 237.19921593 319.19282547 235.3125 320.3125 C229.60609072 323.66713417 223.82251517 326.8526945 218 330 C211.96780418 333.26028876 211.96780418 333.26028876 206.1875 336.9375 C203.18829072 338.87816483 200.20361222 340.42774751 197 342 C192.75631894 344.08278825 188.90977261 346.33802716 185 349 C182.22152465 350.5422005 179.42193889 352.04183736 176.62109375 353.54296875 C174.51008006 354.71645326 172.53783221 355.93027009 170.5625 357.3125 C168.26417604 358.82603041 166.68945464 359.58623775 164 360 C164 360.66 164 361.32 164 362 C163.29875 362.268125 162.5975 362.53625 161.875 362.8125 C155.57271548 365.41561752 149.75178192 368.82051143 143.875 372.25 C143.03259766 372.73944092 142.19019531 373.22888184 141.32226562 373.7331543 C137.70288329 375.83718029 134.08695175 377.94698592 130.4765625 380.06640625 C124.04859486 383.83714317 117.55402142 387.45357884 111 391 C109.3316841 391.91366166 107.66490318 392.83013427 106 393.75 C105.29875 394.13671875 104.5975 394.5234375 103.875 394.921875 C102.20896339 395.87984605 100.59904968 396.93396688 99 398 C98.71386561 400.90070054 98.62191273 403.58696591 98.65942383 406.48876953 C98.65898575 407.36688293 98.65854767 408.24499634 98.65809631 409.14971924 C98.6601914 412.06097416 98.68355625 414.97165782 98.70703125 417.8828125 C98.71262464 419.89777308 98.71689595 421.91273774 98.71989441 423.92770386 C98.73136337 429.23788668 98.76084818 434.54782437 98.79400635 439.85791016 C98.82466307 445.27372928 98.83839033 450.68958792 98.85351562 456.10546875 C98.88571592 466.73708703 98.93693701 477.36852315 99 488 C103.455 486.02 103.455 486.02 108 484 C108 483.34 108 482.68 108 482 C108.804375 481.773125 109.60875 481.54625 110.4375 481.3125 C117.22850688 478.8105501 123.19644926 474.88868964 129.3125 471.0625 C134.54607376 467.80836924 139.87399773 464.9947452 145.4140625 462.3046875 C148.45749927 460.76917711 151.20641366 458.94901373 154 457 C155.67408833 456.03417981 157.34897819 455.06955489 159.03515625 454.125 C161.2825831 452.83820292 163.48097613 451.48068827 165.6875 450.125 C169.42038528 447.86936004 173.20949426 445.85822097 177.125 443.9375 C181.25096612 441.91135592 185.16497004 439.76635681 189.0234375 437.2734375 C195.84302147 432.87979249 202.91394463 428.86508532 209.92578125 424.7890625 C211.96748411 423.60087964 214.00657693 422.40819996 216.04296875 421.2109375 C220.94703647 418.33067004 225.86741347 415.50941399 230.875 412.8125 C233.67876048 411.30094207 236.30137977 409.79480527 238.9375 408 C241.85252241 406.09631189 244.75232913 404.59459695 247.875 403.0625 C253.95524309 400.07505383 259.53102767 396.67890118 265.125 392.875 C268 391 268 391 274 388 C274 358.63 274 329.26 274 299 C267.2788034 299 255.51158078 308.70190849 249.97265625 312.203125 Z " fill="#FF2C20" transform="translate(110,0)"/>
</svg>
