<?xml version="1.0" encoding="UTF-8"?>
<svg version="1.1" xmlns="http://www.w3.org/2000/svg" width="300" height="272">
<path d="M0 0 C99 0 198 0 300 0 C300 89.76 300 179.52 300 272 C201 272 102 272 0 272 C0 182.24 0 92.48 0 0 Z " fill="#FDFDFD" transform="translate(0,0)"/>
<path d="M0 0 C21.78 0 43.56 0 66 0 C66 89.76 66 179.52 66 272 C44.22 272 22.44 272 0 272 C0 266.06 0 260.12 0 254 C2.10375 253.896875 4.2075 253.79375 6.375 253.6875 C15.48538055 253.06095544 15.48538055 253.06095544 24 250 C27.21968508 245.03457658 27.1497828 239.74197312 27.15771484 233.99365234 C27.16279556 233.18983124 27.16787628 232.38601013 27.17311096 231.55783081 C27.18379962 229.81398985 27.19242568 228.07013531 27.19923019 226.32627487 C27.21105203 223.55912967 27.23051551 220.79213823 27.25234985 218.02505493 C27.31383975 210.15786926 27.36789251 202.29069857 27.40136719 194.42333984 C27.42240701 189.60751543 27.45778777 184.79197068 27.50212479 179.97630692 C27.51621501 178.14807063 27.52499133 176.31978485 27.52817917 174.49149704 C27.57410682 150.66354205 27.57410682 150.66354205 35 142 C38.33927848 139.57356167 41.88286381 137.65874179 46 137 C46 136.34 46 135.68 46 135 C45.175 134.814375 44.35 134.62875 43.5 134.4375 C37.44606067 131.95106063 33.1017116 128.48744352 30.42700195 122.44848633 C28.75928828 117.81314135 28.45670395 113.47624585 28.3359375 108.58203125 C28.28655533 107.18051567 28.28655533 107.18051567 28.23617554 105.75068665 C27.73453444 89.9255199 27.688507 74.07407476 27.59863281 58.24145508 C27.57758667 54.62380047 27.54226724 51.00651834 27.49787521 47.38907814 C27.47715216 45.38134761 27.47170499 43.37347761 27.46670532 41.36564636 C27.37611671 34.64163058 27.26369988 28.05673192 24 22 C21.85190654 20.55743757 21.85190654 20.55743757 19.375 20.5 C18.57835937 20.4071875 17.78171875 20.314375 16.9609375 20.21875 C16.31382812 20.1465625 15.66671875 20.074375 15 20 C14.67 19.67 14.34 19.34 14 19 C11.65012738 18.76472227 9.29443961 18.58613583 6.9375 18.4375 C4.648125 18.293125 2.35875 18.14875 0 18 C0 12.06 0 6.12 0 0 Z " fill="#F60605" transform="translate(234,0)"/>
<path d="M0 0 C21.78 0 43.56 0 66 0 C66 5.94 66 11.88 66 18 C58.375 18.375 58.375 18.375 56.00927734 18.47802734 C51.70136823 18.71972521 48.06488294 19.42277413 44 21 C44 21.66 44 22.32 44 23 C43.01 23.66 42.02 24.32 41 25 C38.18001355 31.67166083 38.66733572 38.81231501 38.62109375 45.9453125 C38.60486636 47.31990683 38.58768117 48.69449015 38.56959534 50.06906128 C38.52404788 53.68750748 38.4892308 57.30597064 38.45739746 60.92456055 C38.15187921 94.71150481 38.15187921 94.71150481 37.66015625 107.9921875 C37.6393248 108.79206085 37.61849335 109.5919342 37.59703064 110.41604614 C37.29502083 117.21568327 36.03482367 123.59995157 31.5625 128.875 C30.716875 129.57625 29.87125 130.2775 29 131 C28.38125 131.5775 27.7625 132.155 27.125 132.75 C24.17961803 134.48257763 21.36522051 134.6764211 18 135 C18 135.66 18 136.32 18 137 C18.969375 137.020625 19.93875 137.04125 20.9375 137.0625 C26.24886896 137.852174 30.57689864 140.96657825 34 145 C36.67545667 151.00934959 37.4569245 156.7213278 37.50830078 163.23583984 C37.52663971 164.11015656 37.54497864 164.98447327 37.56387329 165.88528442 C37.62074534 168.74376384 37.6579911 171.6021421 37.6953125 174.4609375 C37.73210579 176.4587353 37.77028478 178.45650802 37.80978394 180.45425415 C37.91023417 185.69057735 37.99465867 190.92702792 38.0748291 196.16369629 C38.20609844 204.56589187 38.36141396 212.96767118 38.51757431 221.36943436 C38.56971941 224.30257627 38.61475699 227.23576225 38.65872192 230.16903687 C38.68915883 231.95953628 38.7197397 233.75003325 38.75048828 235.54052734 C38.76088135 236.35716858 38.77127441 237.17380981 38.78198242 238.01519775 C38.84200732 241.25458063 38.96863573 243.9059072 40 247 C47.65318929 253.43173265 56.40431458 254.20035955 66 255 C66 260.61 66 266.22 66 272 C44.22 272 22.44 272 0 272 C0 182.24 0 92.48 0 0 Z " fill="#F90402" transform="translate(0,0)"/>
<path d="M0 0 C0.65407333 -0.00058411 1.30814667 -0.00116821 1.98204041 -0.00177002 C4.13603476 0.00100857 6.28863138 0.03208609 8.44238281 0.06347656 C9.93881474 0.07093985 11.43525646 0.07663237 12.93170166 0.08062744 C16.86435071 0.09587717 20.79640589 0.13515244 24.7288208 0.17944336 C28.74393684 0.22041083 32.75914913 0.23864156 36.77441406 0.25878906 C44.64838407 0.30164808 52.521872 0.36989053 60.39550781 0.45410156 C60.39550781 1.11410156 60.39550781 1.77410156 60.39550781 2.45410156 C61.71550781 3.11410156 63.03550781 3.77410156 64.39550781 4.45410156 C64.39550781 31.51410156 64.39550781 58.57410156 64.39550781 86.45410156 C62.41550781 87.44410156 62.41550781 87.44410156 60.39550781 88.45410156 C60.39550781 89.11410156 60.39550781 89.77410156 60.39550781 90.45410156 C51.58129197 90.54672747 42.76724331 90.61782844 33.95264721 90.66135025 C29.85977696 90.68223723 25.76723934 90.71057442 21.67456055 90.75585938 C17.72584572 90.79927862 13.7774511 90.8232303 9.82851601 90.83361053 C8.32096629 90.84100907 6.81343436 90.85545669 5.30602074 90.87702179 C3.19638395 90.90600562 1.08807491 90.91005997 -1.02172852 90.90820312 C-2.22307938 90.91708557 -3.42443024 90.92596802 -4.66218567 90.93511963 C-7.60449219 90.45410156 -7.60449219 90.45410156 -9.49066162 88.92059326 C-11.04562793 85.47724055 -11.03091527 82.24375459 -11.00854492 78.53613281 C-11.01540817 77.74218109 -11.02227142 76.94822937 -11.02934265 76.13021851 C-11.04762692 73.50883037 -11.04377134 70.88803971 -11.03808594 68.26660156 C-11.04264661 66.44343877 -11.04795184 64.6202777 -11.05397034 62.79711914 C-11.06290436 58.97730522 -11.0604746 55.15770035 -11.05053711 51.33789062 C-11.03904057 46.44158723 -11.05926774 41.54600427 -11.08845425 36.64979553 C-11.10679411 32.88541071 -11.10652834 29.12119929 -11.10081673 25.35678101 C-11.10066327 23.55145252 -11.10672732 21.74611245 -11.1191082 19.94082642 C-11.13397683 17.41744672 -11.12337294 14.89540786 -11.10620117 12.37207031 C-11.11586914 11.62597504 -11.12553711 10.87987976 -11.13549805 10.11117554 C-11.08856729 6.81987113 -10.80758249 4.76358381 -8.98591614 1.98760986 C-5.82470306 -0.04804048 -3.75076324 -0.02820123 0 0 Z " fill="#FAFAFA" transform="translate(104.6044921875,141.5458984375)"/>
<path d="M0 0 C0.66861557 -0.00525696 1.33723114 -0.01051392 2.02610779 -0.01593018 C4.23574195 -0.02913166 6.44465542 -0.02039222 8.65429688 -0.01025391 C10.18982074 -0.01227462 11.72534368 -0.01518603 13.26086426 -0.01895142 C16.47885272 -0.02337494 19.69659136 -0.016943 22.91455078 -0.00292969 C27.04078303 0.01416248 31.16642991 0.00432141 35.29264069 -0.01364708 C38.46336279 -0.02448429 41.63394597 -0.02103892 44.80467224 -0.0132637 C46.3261268 -0.01126151 47.84759395 -0.01372167 49.36903381 -0.02070236 C51.49506066 -0.02831613 53.62013771 -0.01671523 55.74609375 0 C57.56119446 0.00358017 57.56119446 0.00358017 59.41296387 0.00723267 C62.37304688 0.38818359 62.37304688 0.38818359 64.26396179 1.42466736 C66.02039487 4.53424382 65.78079916 7.7169179 65.74536133 11.19262695 C65.74901199 11.98643265 65.75266266 12.78023834 65.75642395 13.59809875 C65.76453692 16.22495854 65.75091217 18.85120284 65.73632812 21.47802734 C65.73580955 23.30261739 65.73632713 25.12720799 65.73783875 26.95179749 C65.73774898 30.77760143 65.72731281 34.60319481 65.70922852 38.42895508 C65.6865573 43.33295261 65.68599396 48.23664196 65.69274616 53.14067745 C65.69608814 56.9093347 65.68945146 60.6779217 65.67961693 64.44656563 C65.67576738 66.25467117 65.6746157 68.06278453 65.67620277 69.87089348 C65.6765737 72.39886218 65.66394522 74.92643628 65.64770508 77.4543457 C65.6501825 78.20201202 65.65265991 78.94967834 65.6552124 79.72000122 C65.61717014 83.43102825 65.4328523 86.2358444 63.37304688 89.38818359 C54.4457171 89.48086793 45.51855297 89.55194026 36.59084702 89.59543228 C32.44532018 89.61630647 28.30012253 89.64462044 24.15478516 89.68994141 C20.15419531 89.73340608 16.15392206 89.75732197 12.15311432 89.76769257 C10.6268541 89.77508291 9.10061119 89.78951471 7.57448578 89.81110382 C5.43632074 89.84014783 3.29946341 89.84413944 1.16113281 89.84228516 C-0.6642099 89.85560883 -0.6642099 89.85560883 -2.52642822 89.86920166 C-5.62695312 89.38818359 -5.62695312 89.38818359 -8.01985168 87.85566711 C-10.23971985 84.44736445 -10.1795607 81.39055631 -10.12866211 77.4543457 C-10.13406509 76.65878769 -10.13946808 75.86322968 -10.14503479 75.04356384 C-10.15752967 72.41717182 -10.14102813 69.79187428 -10.12304688 67.16552734 C-10.12320183 65.33997032 -10.12469024 63.51441297 -10.12745667 61.68885803 C-10.12884094 57.86477092 -10.11627667 54.04105874 -10.09350586 50.21704102 C-10.06510097 45.31175077 -10.06786358 40.40708261 -10.08059597 35.50174618 C-10.08754521 31.73310518 -10.07977287 27.96460838 -10.06733894 24.19598579 C-10.0628185 22.38705561 -10.06249281 20.57810999 -10.06640434 18.76917839 C-10.0693097 16.24333738 -10.05284336 13.71835904 -10.03100586 11.19262695 C-10.03550751 10.4429364 -10.04000916 9.69324585 -10.04464722 8.9208374 C-10.00415205 6.10670157 -9.91884065 3.90401657 -8.5158844 1.42466736 C-5.65888537 -0.14300911 -3.24546429 0.00640147 0 0 Z " fill="#FBFBFB" transform="translate(103.626953125,37.61181640625)"/>
<path d="M0 0 C0 41.58 0 83.16 0 126 C-15.84 126 -31.68 126 -48 126 C-48 125.34 -48 124.68 -48 124 C-47.39414063 123.78085937 -46.78828125 123.56171875 -46.1640625 123.3359375 C-38.01893907 120.25332156 -29.87669554 116.62090589 -24 110 C-22.73215876 106.86649283 -22.73215876 106.86649283 -22 104 C-21.34 104 -20.68 104 -20 104 C-19.97129822 102.89245865 -19.94259644 101.7849173 -19.9130249 100.64381409 C-19.63948117 90.1828366 -19.34619294 79.72257234 -19.0337944 69.26268101 C-18.87383281 63.88570247 -18.72072233 58.50871413 -18.58349609 53.13110352 C-18.45069466 47.9369277 -18.2996003 42.7435713 -18.13605499 37.5502758 C-18.0769725 35.57343707 -18.02437336 33.59639311 -17.978508 31.61920357 C-17.9129014 28.83979015 -17.82381875 26.06201461 -17.72949219 23.28344727 C-17.71582108 22.47423828 -17.70214996 21.6650293 -17.68806458 20.83129883 C-17.42636142 14.27920359 -15.7774084 7.78845177 -11.03515625 3.02734375 C-10.38417969 2.66769531 -9.73320312 2.30804688 -9.0625 1.9375 C-8.41410156 1.55464844 -7.76570313 1.17179688 -7.09765625 0.77734375 C-5 0 -5 0 0 0 Z " fill="#FDFCFC" transform="translate(300,146)"/>
<path d="M0 0 C16.17 0 32.34 0 49 0 C49 41.25 49 82.5 49 125 C41 125 41 125 38.5 123.625 C37 122 37 122 37 120 C36.01 119.67 35.02 119.34 34 119 C32.31773222 111.79956107 31.6227405 104.86500523 31.40234375 97.484375 C31.34423775 95.8611306 31.34423775 95.8611306 31.28495789 94.20509338 C31.20375351 91.90472814 31.12628609 89.60422833 31.05230713 87.30361938 C30.93654802 83.72053355 30.80921726 80.13801462 30.67919922 76.55541992 C30.3173257 66.43522179 29.98513824 56.31634085 29.79296875 46.19140625 C29.76274015 44.81216812 29.73223721 43.43293596 29.70141602 42.05371094 C29.65241933 39.65490848 29.61895309 37.25570883 29.60522461 34.85644531 C29.47411483 28.55349989 28.49926244 23.69551185 25.85302734 17.94995117 C25 16 25 16 25 14 C23.68 13.34 22.36 12.68 21 12 C21 11.34 21 10.68 21 10 C18.34771188 8.92474806 15.71631546 7.90543849 13 7 C13 6.34 13 5.68 13 5 C8.71 4.01 4.42 3.02 0 2 C0 1.34 0 0.68 0 0 Z " fill="#FDFBFB" transform="translate(251,0)"/>
<path d="M0 0 C9.26862176 0 9.26862176 0 12.76174927 3.4181366 C18.08327694 10.21638 17.53627508 18.86057319 17.6953125 27.04296875 C17.73219927 28.41615715 17.77038305 29.78931125 17.80978394 31.16242981 C17.91020703 34.77246589 17.99447706 38.38269347 18.0748291 41.9932251 C18.15715921 45.59401556 18.25240004 49.19445376 18.34765625 52.79492188 C18.36618023 53.49701845 18.38470421 54.19911503 18.40378952 54.92248726 C18.44090756 56.32845482 18.4780915 57.73442064 18.51534271 59.14038467 C18.57004842 61.22042763 18.62338966 63.30050239 18.67657471 65.38058472 C18.88158718 73.29468125 19.12884582 81.20473435 19.4921875 89.11328125 C19.52813019 89.93015915 19.56407288 90.74703705 19.60110474 91.58866882 C19.82522775 96.11573017 20.2880596 100.52309013 21 105 C21.66 105 22.32 105 23 105 C23.20625 105.886875 23.4125 106.77375 23.625 107.6875 C26.54094523 114.71227714 32.73490542 117.05407561 39.36328125 119.9296875 C42.2069013 121.0839866 45.05758959 122.12522934 48 123 C48 123.66 48 124.32 48 125 C32.16 125 16.32 125 0 125 C0 83.75 0 42.5 0 0 Z " fill="#FDFAF9" transform="translate(0,147)"/>
<path d="M0 0 C16.17 0 32.34 0 49 0 C47.32638591 3.34722818 43.54627307 3.8547522 40.1875 5.0625 C39.46240234 5.33126953 38.73730469 5.60003906 37.99023438 5.87695312 C32.51291842 7.8864716 32.51291842 7.8864716 29.8215332 8.48217773 C27.85952728 8.81815862 27.85952728 8.81815862 27 10.625 C26.67 11.40875 26.34 12.1925 26 13 C24 16.375 24 16.375 23 18.0234375 C20.12491995 23.70621292 19.62481578 29.00070788 19.40234375 35.2421875 C19.36360641 36.14702377 19.32486908 37.05186005 19.28495789 37.9841156 C19.16074579 40.94746571 19.04928257 43.91115745 18.9375 46.875 C18.85200956 48.93256124 18.76590236 50.99009693 18.67919922 53.04760742 C18.26226175 63.23774358 17.94492992 73.42349878 17.79296875 83.62109375 C17.77763596 84.53276306 17.76230316 85.44443237 17.74650574 86.38372803 C17.67462449 90.69543543 17.62138087 95.00559003 17.60522461 99.31787109 C17.51043696 108.51103559 17.16647307 116.37058548 10.75 123.5 C8 125 8 125 0 126 C0 84.42 0 42.84 0 0 Z " fill="#FDFAF9" transform="translate(0,0)"/>
<path d="M0 0 C0.33 0 0.66 0 1 0 C3.01148691 9.65496298 3.34041921 19.11061394 3.4140625 28.921875 C3.43281675 30.51899162 3.45239316 32.11609878 3.4727478 33.7131958 C3.52362617 37.87555304 3.563486 42.03794225 3.60089111 46.20043945 C3.64121184 50.46443296 3.69217468 54.72829861 3.7421875 58.9921875 C3.83842077 67.32803698 3.92299018 75.66395085 4 84 C4.66 84 5.32 84 6 84 C6.4640625 85.6396875 6.4640625 85.6396875 6.9375 87.3125 C8.15982124 92.12958538 8.15982124 92.12958538 11 96 C10.67 96.66 10.34 97.32 10 98 C7.69 98 5.38 98 3 98 C3 98.99 3 99.98 3 101 C0.625 100.6875 0.625 100.6875 -2 100 C-2.66 99.01 -3.32 98.02 -4 97 C-6.55183404 95.79549696 -6.55183404 95.79549696 -9 95 C-9 94.01 -9 93.02 -9 92 C-9.66 92 -10.32 92 -11 92 C-13.38664802 87.05304458 -14.38330857 83.42351261 -14.43579102 77.84301758 C-14.45090477 76.82699715 -14.45090477 76.82699715 -14.46632385 75.79045105 C-14.49457971 73.57497207 -14.50066692 71.36017859 -14.50390625 69.14453125 C-14.51355657 67.59469836 -14.52364973 66.04486816 -14.53416443 64.49504089 C-14.55206494 61.25810401 -14.55769113 58.02140667 -14.5559082 54.78442383 C-14.5556022 50.63779885 -14.59670124 46.49270202 -14.64822483 42.34644032 C-14.68156794 39.15078159 -14.68766669 35.95549467 -14.68607903 32.75967979 C-14.68961652 31.23062516 -14.70287211 29.70156064 -14.72607613 28.17267799 C-14.75548026 26.03695307 -14.74685755 23.9045777 -14.72875977 21.76879883 C-14.73303482 20.55525223 -14.73730988 19.34170563 -14.74171448 18.09138489 C-14 15 -14 15 -11.09825134 12.75175476 C-10.0758284 12.17367569 -9.05340546 11.59559662 -8 11 C-5.66070548 8.24205992 -5.66070548 8.24205992 -3.6875 5.25 C-2.47634746 3.48748469 -1.25231285 1.73351182 0 0 Z " fill="#F80403" transform="translate(278,32)"/>
<path d="M0 0 C0.33 0 0.66 0 1 0 C0.9969838 0.84080612 0.99396759 1.68161224 0.99085999 2.54789734 C0.9685984 10.47867935 0.97981223 18.40855967 1.02846622 26.33923626 C1.05230309 30.41643773 1.06327337 34.4928221 1.04467773 38.57006836 C1.02720114 42.50633975 1.0437333 46.44114446 1.08367729 50.37723732 C1.09295896 51.87747481 1.09006335 53.37783949 1.07469368 54.87802696 C0.65210378 62.88329748 0.65210378 62.88329748 3.54367065 69.9671936 C5.61633089 71.51224623 5.61633089 71.51224623 9 73 C12.77152608 77.65894399 18 85.80585388 18 92 C17.34 92 16.68 92 16 92 C15.9071875 93.3303125 15.9071875 93.3303125 15.8125 94.6875 C14.34893775 100.65433072 10.0629928 103.06746977 5.0625 106.125 C-5.12789948 112 -5.12789948 112 -10 112 C-10 112.66 -10 113.32 -10 114 C-15.94 114 -21.88 114 -28 114 C-28 108.06 -28 102.12 -28 96 C-25.89625 95.896875 -23.7925 95.79375 -21.625 95.6875 C-12.51461945 95.06095544 -12.51461945 95.06095544 -4 92 C-0.75814817 87.00039084 -0.83787748 81.62259341 -0.79467773 75.83496094 C-0.77982834 74.60513489 -0.77982834 74.60513489 -0.76467896 73.35046387 C-0.73313517 70.64513011 -0.70833471 67.93977881 -0.68359375 65.234375 C-0.66301807 63.35678658 -0.64202144 61.47920273 -0.62062073 59.60162354 C-0.56546345 54.6631643 -0.5160262 49.7246637 -0.46777344 44.78613281 C-0.41751208 39.74540532 -0.36185021 34.70473779 -0.30664062 29.6640625 C-0.19913665 19.77609291 -0.09767445 9.88807123 0 0 Z " fill="#FAA610" transform="translate(262,158)"/>
<path d="M0 0 C5.61 0 11.22 0 17 0 C17 0.66 17 1.32 17 2 C18.03125 2.12375 19.0625 2.2475 20.125 2.375 C23.62116846 2.93889814 26.68397627 3.78682059 30 5 C30 5.66 30 6.32 30 7 C31.0209375 7.061875 31.0209375 7.061875 32.0625 7.125 C37.59108703 8.77181316 40.981896 12.472844 44.125 17.1875 C45.59063627 23.57348661 43.39447769 29.08427391 40.625 34.875 C38.05383594 38.23729146 35.07124584 41.07434248 31.8739624 43.83709717 C29.60973629 46.45043725 29.4885636 47.63220383 29.45410156 51.04394531 C29.42452362 52.54504852 29.42452362 52.54504852 29.39434814 54.07647705 C29.39250519 55.68604279 29.39250519 55.68604279 29.390625 57.328125 C29.37408875 58.43226746 29.35755249 59.53640991 29.34051514 60.67401123 C29.29194374 64.19939689 29.2706431 67.72435089 29.25 71.25 C29.2218481 73.64064682 29.19192178 76.03127346 29.16015625 78.421875 C29.08618231 84.2811714 29.03459335 90.14034594 29 96 C28.67 96 28.34 96 28 96 C27.99120064 94.80849083 27.99120064 94.80849083 27.98222351 93.59291077 C27.9241134 86.07555756 27.85193332 78.5585289 27.76428509 71.04146671 C27.71972058 67.17764977 27.68043471 63.31393489 27.65356445 59.44995117 C27.62739135 55.71499516 27.58689254 51.98043488 27.53681374 48.24572563 C27.52023901 46.82696932 27.50866661 45.40814472 27.50238609 43.9893055 C27.46389274 36.08644139 27.22128296 29.28862368 24 22 C21.85190654 20.55743757 21.85190654 20.55743757 19.375 20.5 C18.57835937 20.4071875 17.78171875 20.314375 16.9609375 20.21875 C16.31382812 20.1465625 15.66671875 20.074375 15 20 C14.67 19.67 14.34 19.34 14 19 C11.65012738 18.76472227 9.29443961 18.58613583 6.9375 18.4375 C4.648125 18.293125 2.35875 18.14875 0 18 C0 12.06 0 6.12 0 0 Z " fill="#FAAD09" transform="translate(234,0)"/>
<path d="M0 0 C0.65407333 -0.00058411 1.30814667 -0.00116821 1.98204041 -0.00177002 C4.13603476 0.00100857 6.28863138 0.03208609 8.44238281 0.06347656 C9.93881474 0.07093985 11.43525646 0.07663237 12.93170166 0.08062744 C16.86435071 0.09587717 20.79640589 0.13515244 24.7288208 0.17944336 C28.74393684 0.22041083 32.75914913 0.23864156 36.77441406 0.25878906 C44.64838407 0.30164808 52.521872 0.36989053 60.39550781 0.45410156 C60.39550781 1.11410156 60.39550781 1.77410156 60.39550781 2.45410156 C61.71550781 3.11410156 63.03550781 3.77410156 64.39550781 4.45410156 C64.39550781 31.51410156 64.39550781 58.57410156 64.39550781 86.45410156 C62.41550781 87.44410156 62.41550781 87.44410156 60.39550781 88.45410156 C60.39550781 89.11410156 60.39550781 89.77410156 60.39550781 90.45410156 C51.58129197 90.54672747 42.76724331 90.61782844 33.95264721 90.66135025 C29.85977696 90.68223723 25.76723934 90.71057442 21.67456055 90.75585938 C17.72584572 90.79927862 13.7774511 90.8232303 9.82851601 90.83361053 C8.32096629 90.84100907 6.81343436 90.85545669 5.30602074 90.87702179 C3.19638395 90.90600562 1.08807491 90.91005997 -1.02172852 90.90820312 C-2.22307938 90.91708557 -3.42443024 90.92596802 -4.66218567 90.93511963 C-7.60449219 90.45410156 -7.60449219 90.45410156 -9.49066162 88.92059326 C-11.04562793 85.47724055 -11.03091527 82.24375459 -11.00854492 78.53613281 C-11.01540817 77.74218109 -11.02227142 76.94822937 -11.02934265 76.13021851 C-11.04762692 73.50883037 -11.04377134 70.88803971 -11.03808594 68.26660156 C-11.04264661 66.44343877 -11.04795184 64.6202777 -11.05397034 62.79711914 C-11.06290436 58.97730522 -11.0604746 55.15770035 -11.05053711 51.33789062 C-11.03904057 46.44158723 -11.05926774 41.54600427 -11.08845425 36.64979553 C-11.10679411 32.88541071 -11.10652834 29.12119929 -11.10081673 25.35678101 C-11.10066327 23.55145252 -11.10672732 21.74611245 -11.1191082 19.94082642 C-11.13397683 17.41744672 -11.12337294 14.89540786 -11.10620117 12.37207031 C-11.11586914 11.62597504 -11.12553711 10.87987976 -11.13549805 10.11117554 C-11.08856729 6.81987113 -10.80758249 4.76358381 -8.98591614 1.98760986 C-5.82470306 -0.04804048 -3.75076324 -0.02820123 0 0 Z M-7.60449219 5.45410156 C-7.71014501 7.93825104 -7.75127493 10.39473989 -7.74975586 12.87963867 C-7.75311447 13.65685776 -7.75647308 14.43407684 -7.75993347 15.23484802 C-7.7694718 17.81706315 -7.77138802 20.39921364 -7.77246094 22.98144531 C-7.77567151 24.76884488 -7.77903543 26.55624418 -7.782547 28.34364319 C-7.78854548 32.09555674 -7.79038616 35.84744723 -7.78979492 39.59936523 C-7.78969326 44.41614979 -7.80334671 49.23278708 -7.82056713 54.04953671 C-7.83166467 57.74260645 -7.83371482 61.43564034 -7.8331852 65.12872505 C-7.83436866 66.90499949 -7.83881083 68.68127476 -7.84651756 70.45753288 C-7.85627236 72.93818463 -7.85345745 75.41851341 -7.84741211 77.89916992 C-7.85303162 78.63846741 -7.85865112 79.37776489 -7.86444092 80.13946533 C-7.96619777 84.24963389 -7.96619777 84.24963389 -5.60449219 87.45410156 C-2.78530858 87.75470193 -2.78530858 87.75470193 0.55761719 87.69702148 C2.49973083 87.70163643 2.49973083 87.70163643 4.4810791 87.7063446 C5.9004738 87.69944665 7.31986675 87.69217967 8.73925781 87.68457031 C10.18892374 87.68337852 11.63859044 87.68292535 13.08825684 87.68318176 C16.12806017 87.68161644 19.16774581 87.67332326 22.20751953 87.65991211 C26.10838746 87.64292218 30.00912596 87.63909775 33.91002655 87.63985729 C36.90396363 87.63958565 39.89787229 87.63410532 42.89179993 87.62685585 C44.33034551 87.62366865 45.76889432 87.62170166 47.20744324 87.62096214 C49.21610671 87.61879916 51.22475819 87.60926282 53.23339844 87.59936523 C54.37764282 87.59555344 55.52188721 87.59174164 56.70080566 87.58781433 C59.36553114 87.63673013 59.36553114 87.63673013 61.39550781 86.45410156 C61.41864443 76.05794305 61.43642966 65.66179063 61.44731998 55.26561165 C61.45254591 50.43862119 61.45963833 45.61164831 61.47094727 40.78466797 C61.48178641 36.12924908 61.48778684 31.47384713 61.49038506 26.8184166 C61.49223744 25.03935352 61.49585451 23.2602914 61.50123787 21.4812355 C61.5084619 18.99577049 61.50949817 16.51037611 61.5090332 14.02490234 C61.51442612 12.91359955 61.51442612 12.91359955 61.51992798 11.77984619 C61.57555976 7.99118112 61.57555976 7.99118112 60.39550781 4.45410156 C51.67706779 4.43097545 42.95863825 4.41318511 34.24017429 4.40228939 C30.19225039 4.39706115 26.14434741 4.38996457 22.09643555 4.37866211 C18.1931481 4.36783113 14.28988082 4.36182428 10.38657951 4.35922432 C8.89417134 4.35737045 7.40176433 4.35375056 5.9093647 4.34837151 C3.82602642 4.34115826 1.7427725 4.34011074 -0.34057617 4.34057617 C-1.52860336 4.33835556 -2.71663055 4.33613495 -3.94065857 4.33384705 C-6.52569911 4.15047561 -6.52569911 4.15047561 -7.60449219 5.45410156 Z " fill="#979797" transform="translate(104.6044921875,141.5458984375)"/>
<path d="M0 0 C0.02505615 0.55985596 0.0501123 1.11971191 0.07592773 1.6965332 C0.19203745 4.23541305 0.3146958 6.77393553 0.4375 9.3125 C0.47681641 10.19357422 0.51613281 11.07464844 0.55664062 11.98242188 C0.59853516 12.82998047 0.64042969 13.67753906 0.68359375 14.55078125 C0.72025146 15.33106689 0.75690918 16.11135254 0.79467773 16.9152832 C1.06592821 19.66939476 1.39860679 21.49458975 3.56640625 23.31640625 C11.506604 28.27320289 18.7624594 29.23020495 28 30 C28 35.61 28 41.22 28 47 C22.06 47 16.12 47 10 47 C10 46.34 10 45.68 10 45 C8.700625 44.773125 7.40125 44.54625 6.0625 44.3125 C-1.56133983 42.61032192 -8.54989797 38.58635458 -14 33 C-14.75 29.75 -14.75 29.75 -15 27 C-15.66 26.67 -16.32 26.34 -17 26 C-15.28842398 19.12180321 -9.85923075 0 0 0 Z " fill="#FBAC05" transform="translate(38,225)"/>
<path d="M0 0 C0.66861557 -0.00525696 1.33723114 -0.01051392 2.02610779 -0.01593018 C4.23574195 -0.02913166 6.44465542 -0.02039222 8.65429688 -0.01025391 C10.18982074 -0.01227462 11.72534368 -0.01518603 13.26086426 -0.01895142 C16.47885272 -0.02337494 19.69659136 -0.016943 22.91455078 -0.00292969 C27.04078303 0.01416248 31.16642991 0.00432141 35.29264069 -0.01364708 C38.46336279 -0.02448429 41.63394597 -0.02103892 44.80467224 -0.0132637 C46.3261268 -0.01126151 47.84759395 -0.01372167 49.36903381 -0.02070236 C51.49506066 -0.02831613 53.62013771 -0.01671523 55.74609375 0 C57.56119446 0.00358017 57.56119446 0.00358017 59.41296387 0.00723267 C62.37304688 0.38818359 62.37304688 0.38818359 64.26396179 1.42466736 C66.02039487 4.53424382 65.78079916 7.7169179 65.74536133 11.19262695 C65.74901199 11.98643265 65.75266266 12.78023834 65.75642395 13.59809875 C65.76453692 16.22495854 65.75091217 18.85120284 65.73632812 21.47802734 C65.73580955 23.30261739 65.73632713 25.12720799 65.73783875 26.95179749 C65.73774898 30.77760143 65.72731281 34.60319481 65.70922852 38.42895508 C65.6865573 43.33295261 65.68599396 48.23664196 65.69274616 53.14067745 C65.69608814 56.9093347 65.68945146 60.6779217 65.67961693 64.44656563 C65.67576738 66.25467117 65.6746157 68.06278453 65.67620277 69.87089348 C65.6765737 72.39886218 65.66394522 74.92643628 65.64770508 77.4543457 C65.6501825 78.20201202 65.65265991 78.94967834 65.6552124 79.72000122 C65.61717014 83.43102825 65.4328523 86.2358444 63.37304688 89.38818359 C54.4457171 89.48086793 45.51855297 89.55194026 36.59084702 89.59543228 C32.44532018 89.61630647 28.30012253 89.64462044 24.15478516 89.68994141 C20.15419531 89.73340608 16.15392206 89.75732197 12.15311432 89.76769257 C10.6268541 89.77508291 9.10061119 89.78951471 7.57448578 89.81110382 C5.43632074 89.84014783 3.29946341 89.84413944 1.16113281 89.84228516 C-0.6642099 89.85560883 -0.6642099 89.85560883 -2.52642822 89.86920166 C-5.62695312 89.38818359 -5.62695312 89.38818359 -8.01985168 87.85566711 C-10.23971985 84.44736445 -10.1795607 81.39055631 -10.12866211 77.4543457 C-10.13406509 76.65878769 -10.13946808 75.86322968 -10.14503479 75.04356384 C-10.15752967 72.41717182 -10.14102813 69.79187428 -10.12304688 67.16552734 C-10.12320183 65.33997032 -10.12469024 63.51441297 -10.12745667 61.68885803 C-10.12884094 57.86477092 -10.11627667 54.04105874 -10.09350586 50.21704102 C-10.06510097 45.31175077 -10.06786358 40.40708261 -10.08059597 35.50174618 C-10.08754521 31.73310518 -10.07977287 27.96460838 -10.06733894 24.19598579 C-10.0628185 22.38705561 -10.06249281 20.57810999 -10.06640434 18.76917839 C-10.0693097 16.24333738 -10.05284336 13.71835904 -10.03100586 11.19262695 C-10.03550751 10.4429364 -10.04000916 9.69324585 -10.04464722 8.9208374 C-10.00415205 6.10670157 -9.91884065 3.90401657 -8.5158844 1.42466736 C-5.65888537 -0.14300911 -3.24546429 0.00640147 0 0 Z M-6.62695312 4.38818359 C-6.73260595 6.87233308 -6.77373587 9.32882192 -6.7722168 11.8137207 C-6.77557541 12.59093979 -6.77893402 13.36815887 -6.78239441 14.16893005 C-6.79193273 16.75114518 -6.79384896 19.33329567 -6.79492188 21.91552734 C-6.79813245 23.70292691 -6.80149637 25.49032622 -6.80500793 27.27772522 C-6.81100642 31.02963877 -6.8128471 34.78152926 -6.81225586 38.53344727 C-6.81215419 43.35023182 -6.82580765 48.16686911 -6.84302807 52.98361874 C-6.85412561 56.67668848 -6.85617576 60.36972237 -6.85564613 64.06280708 C-6.8568296 65.83908153 -6.86127177 67.6153568 -6.8689785 69.39161491 C-6.8787333 71.87226666 -6.87591838 74.35259544 -6.86987305 76.83325195 C-6.87549255 77.57254944 -6.88111206 78.31184692 -6.88690186 79.07354736 C-6.98865871 83.18371592 -6.98865871 83.18371592 -4.62695312 86.38818359 C-1.75996395 86.68887201 -1.75996395 86.68887201 1.64282227 86.63110352 C2.96081314 86.63418015 4.27880402 86.63725677 5.63673401 86.64042664 C7.08139215 86.6335294 8.52604856 86.62626247 9.97070312 86.61865234 C11.44518493 86.61746068 12.91966751 86.61700735 14.39414978 86.61726379 C17.48522692 86.61569859 20.5761883 86.60740545 23.66723633 86.59399414 C27.6377044 86.57698934 31.60804535 86.57318019 35.57854557 86.57393932 C38.62305423 86.57366797 41.66753486 86.56819269 44.71203423 86.56093788 C46.17652614 86.5577467 47.64102123 86.55578276 49.10551643 86.55504417 C51.14791118 86.55288623 53.19029418 86.54335725 55.23266602 86.53344727 C56.97901085 86.52772957 56.97901085 86.52772957 58.76063538 86.52189636 C61.30016233 86.68441393 61.30016233 86.68441393 62.37304688 85.38818359 C62.47340503 82.86815908 62.50922399 80.37552159 62.50244141 77.85498047 C62.50419373 77.06640152 62.50594604 76.27782257 62.50775146 75.46534729 C62.51217046 72.84585399 62.50923183 70.22642764 62.50585938 67.60693359 C62.5065324 65.79471829 62.50750241 63.98250308 62.50875854 62.17028809 C62.51023558 58.3670974 62.50808078 54.56393016 62.50341797 50.76074219 C62.49772068 45.87439864 62.50099965 40.98811002 62.50699043 36.10176849 C62.51059589 32.35812971 62.50945753 28.61450404 62.50686264 24.87086487 C62.50619333 23.06864923 62.50702194 21.26643241 62.50934219 19.46421814 C62.51186847 16.94990868 62.5080285 14.43568942 62.50244141 11.92138672 C62.50547775 10.79302147 62.50547775 10.79302147 62.50857544 9.64186096 C62.80044399 6.22709762 62.80044399 6.22709762 61.37304688 3.38818359 C59.29229278 3.28874387 57.20812839 3.26018763 55.125 3.25878906 C54.47297104 3.25703674 53.82094208 3.25528442 53.14915466 3.253479 C50.98417535 3.24906155 48.81927709 3.25199808 46.65429688 3.25537109 C45.15596501 3.25469802 43.65763325 3.25372797 42.15930176 3.25247192 C39.01520755 3.2509951 35.8711417 3.25314901 32.72705078 3.2578125 C28.68818149 3.26350979 24.64937863 3.2602307 20.61051178 3.25424004 C17.51539607 3.25063401 14.42029623 3.2517732 11.32518005 3.25436783 C9.83556612 3.25503698 8.34595077 3.25420907 6.8563385 3.25188828 C4.77788452 3.24936106 2.69953956 3.25320327 0.62109375 3.25878906 C-0.56391724 3.25958466 -1.74892822 3.26038025 -2.96984863 3.26119995 C-5.54888653 3.08593486 -5.54888653 3.08593486 -6.62695312 4.38818359 Z " fill="#9B9B9B" transform="translate(103.626953125,37.61181640625)"/>
<path d="M0 0 C2.701875 0.04125 5.40375 0.0825 8.1875 0.125 C8.1875 6.065 8.1875 12.005 8.1875 18.125 C0.5625 18.5 0.5625 18.5 -1.80322266 18.60302734 C-6.11113177 18.84472521 -9.74761706 19.54777413 -13.8125 21.125 C-13.8125 21.785 -13.8125 22.445 -13.8125 23.125 C-14.8025 23.785 -15.7925 24.445 -16.8125 25.125 C-19.04613466 30.95726828 -19.38693893 36.93196648 -19.8125 43.125 C-28.24617385 38.61161022 -32.09306867 30.32365763 -35.37890625 21.66796875 C-36.09826231 17.44904266 -34.39500001 15.04833934 -32.18359375 11.54296875 C-29.09152813 8.38977498 -25.92927199 7.05994795 -21.875 5.4375 C-21.17181641 5.14294922 -20.46863281 4.84839844 -19.74414062 4.54492188 C-18.37592564 3.97429801 -17.00333594 3.41403075 -15.6262207 2.86523438 C-14.17973845 2.27488114 -12.76295387 1.6119257 -11.359375 0.92578125 C-7.57549763 -0.2639348 -3.93685396 -0.08513338 0 0 Z " fill="#FCAC05" transform="translate(57.8125,-0.12499999999999999)"/>
<path d="M0 0 C8.58 0 17.16 0 26 0 C26 35.64 26 71.28 26 108 C17.42 108 8.84 108 0 108 C0 106.68 0 105.36 0 104 C7.26 104 14.52 104 22 104 C22 71 22 38 22 4 C14.74 4 7.48 4 0 4 C0 2.68 0 1.36 0 0 Z " fill="#9D9D9D" transform="translate(180,82)"/>
<path d="M0 0 C2.18096019 2.18096019 2.41736914 3.10554845 3.1875 6 C5.09544496 12.01586726 8.64417162 18.85732322 14.08415222 22.33071899 C16 24 16 24 16.48774719 26.23153687 C16.48188095 27.10307404 16.47601471 27.97461121 16.4699707 28.87255859 C16.47435905 30.3621962 16.47435905 30.3621962 16.47883606 31.88192749 C16.46132797 32.95987579 16.44381989 34.0378241 16.42578125 35.1484375 C16.42249313 36.27077789 16.41920502 37.39311829 16.41581726 38.54946899 C16.40003983 42.15836513 16.35609094 45.76634413 16.3125 49.375 C16.30100425 51.73697138 16.29122039 54.09895175 16.28320312 56.4609375 C16.24837644 63.30875735 16.14688047 70.15370226 16 77 C15.97822693 78.02726196 15.95645386 79.05452393 15.934021 80.11291504 C15.86404155 82.96427088 15.77139958 85.8137436 15.66796875 88.6640625 C15.63610222 89.89363174 15.63610222 89.89363174 15.60359192 91.14804077 C15.35473756 96.83473768 14.04539118 101.69704629 12 107 C10.88425425 103.65276275 11.18168671 103.2385283 12 100 C12.11680374 97.51487059 12.18477386 95.05520721 12.20532227 92.56933594 C12.22017166 91.45655273 12.22017166 91.45655273 12.23532104 90.32128906 C12.26684147 87.87568321 12.29165595 85.43005795 12.31640625 82.984375 C12.33698395 81.2861481 12.35798064 79.58792623 12.37937927 77.88970947 C12.43451567 73.4247241 12.48396207 68.95969315 12.53222656 64.49462891 C12.58250322 59.93648228 12.63815709 55.37840166 12.69335938 50.8203125 C12.80083778 41.88026475 12.90230559 32.94015964 13 24 C10.66785852 22.79371992 8.50357861 21.8345262 6 21 C3 17.55555556 3 17.55555556 3 15 C2.34 15 1.68 15 1 15 C-0.20898455 18.62695365 -0.10566779 21.92342213 -0.0625 25.6953125 C-0.05871338 26.44336151 -0.05492676 27.19141052 -0.05102539 27.96212769 C-0.0388117 30.34981033 -0.02017308 32.73737212 0 35.125 C0.02648392 38.27343402 0.04652142 41.42180966 0.0625 44.5703125 C0.07079834 45.29944855 0.07909668 46.02858459 0.08764648 46.77981567 C0.0962143 48.52010127 0.05330137 50.26050975 0 52 C-0.495 52.495 -0.495 52.495 -1 53 C-1.19192313 58.16684236 -1.19192313 58.16684236 -0.5078125 63.2578125 C0.16289864 66.87965265 0.22325755 70.45459887 0.25 74.125 C0.2809375 75.19814453 0.2809375 75.19814453 0.3125 76.29296875 C0.35207621 81.5862871 0.35207621 81.5862871 -1.47265625 83.73046875 C-1.97667969 84.14941406 -2.48070312 84.56835938 -3 85 C-3.57017808 87.04100238 -3.57017808 87.04100238 -3.6875 89.1875 C-3.790625 90.445625 -3.89375 91.70375 -4 93 C-4.33 93 -4.66 93 -5 93 C-5.22313397 72.31719747 -5.13094744 51.6598375 -4.30828857 30.98956299 C-4.22807899 28.96284241 -4.15239959 26.93593723 -4.08135986 24.90887451 C-3.97886244 22.05172201 -3.85762264 19.19599293 -3.73046875 16.33984375 C-3.70219498 15.49664078 -3.6739212 14.65343781 -3.64479065 13.78468323 C-3.38122062 8.53578856 -2.3494041 4.71103442 0 0 Z " fill="#E51917" transform="translate(22,19)"/>
<path d="M0 0 C0 0.99 0 1.98 0 3 C-1.32 3.33 -2.64 3.66 -4 4 C-4 4.66 -4 5.32 -4 6 C-3.34 6.33 -2.68 6.66 -2 7 C-2.99 7 -3.98 7 -5 7 C-5 12.28 -5 17.56 -5 23 C-3.68 22.34 -2.36 21.68 -1 21 C-0.01 21 0.98 21 2 21 C2.33 19.68 2.66 18.36 3 17 C4.32 16.67 5.64 16.34 7 16 C7.33 14.68 7.66 13.36 8 12 C9.98 12 11.96 12 14 12 C10.25 15 10.25 15 8 15 C8 15.66 8 16.32 8 17 C7.01 17.66 6.02 18.32 5 19 C2.76636534 24.83226828 2.42556107 30.80696648 2 37 C-6.43367385 32.48661022 -10.28056867 24.19865763 -13.56640625 15.54296875 C-14.28037154 11.35565878 -12.52877797 8.79316696 -10.25 5.375 C-7.43024096 2.39858768 -4.24480167 0 0 0 Z " fill="#F9A30D" transform="translate(36,6)"/>
<path d="M0 0 C17.82 0 35.64 0 54 0 C54 1.65 54 3.3 54 5 C36.18 5 18.36 5 0 5 C0 3.35 0 1.7 0 0 Z " fill="#909090" transform="translate(105,54)"/>
<path d="M0 0 C0.66 0 1.32 0 2 0 C2 5.28 2 10.56 2 16 C2.66 16 3.32 16 4 16 C3.49396008 18.16874252 3.00016187 19.99967627 2 22 C0.68 22 -0.64 22 -2 22 C-2 21.34 -2 20.68 -2 20 C-5.63 20 -9.26 20 -13 20 C-12.67 20.99 -12.34 21.98 -12 23 C-18.625 24 -18.625 24 -22 24 C-25.35485174 30.23043894 -26.29986556 35.7084839 -26.31884766 42.66748047 C-26.32889328 43.51691727 -26.3389389 44.36635406 -26.34928894 45.24153137 C-26.38004029 48.03341022 -26.39713363 50.82519352 -26.4140625 53.6171875 C-26.43278062 55.5591819 -26.45235452 57.50116822 -26.4727478 59.44314575 C-26.52400688 64.5426761 -26.56366594 69.6422328 -26.60089111 74.74188232 C-26.64096977 79.95038335 -26.6920445 85.15877536 -26.7421875 90.3671875 C-26.83887311 100.57804834 -26.92330147 110.78897083 -27 121 C-27.99 121 -28.98 121 -30 121 C-29.97167084 120.41581802 -29.94334167 119.83163605 -29.91415405 119.22975159 C-29.29439334 106.100793 -28.91172842 92.98201756 -28.7890625 79.83984375 C-28.77476397 78.44625725 -28.76033877 77.05267203 -28.74578857 75.65908813 C-28.68768227 69.96409735 -28.63154753 64.26917464 -28.59863281 58.57397461 C-28.57761404 55.0241838 -28.54233035 51.47477469 -28.49787521 47.92520332 C-28.47714744 45.95786196 -28.47170439 43.99037816 -28.46670532 42.02293396 C-28.37493114 35.3750523 -28.09300488 29.95870351 -25 24 C-24.01 23.67 -23.02 23.34 -22 23 C-22 22.34 -22 21.68 -22 21 C-16.98093811 17.98381296 -13.27875711 17.61470602 -7.625 17.8125 C-3.850625 17.9053125 -3.850625 17.9053125 0 18 C0 12.06 0 6.12 0 0 Z " fill="#FDE5D0" transform="translate(66,0)"/>
<path d="M0 0 C2 1 2 1 2.61889648 2.79199219 C3.00392085 5.02271632 3.11381451 7.06596839 3.09765625 9.328125 C3.09443359 10.12734375 3.09121094 10.9265625 3.08789062 11.75 C3.07951172 12.575 3.07113281 13.4 3.0625 14.25 C3.05798828 15.09046875 3.05347656 15.9309375 3.04882812 16.796875 C3.03707961 18.86461401 3.01914522 20.93231624 3 23 C2.67 23 2.34 23 2 23 C1.34 19.7 0.68 16.4 0 13 C-0.60328125 13.77085938 -1.2065625 14.54171875 -1.828125 15.3359375 C-3.02695312 16.84027344 -3.02695312 16.84027344 -4.25 18.375 C-5.03890625 19.37273438 -5.8278125 20.37046875 -6.640625 21.3984375 C-8.82066679 23.80225841 -10.13755982 24.70609254 -13 26 C-13.04643194 35.00595416 -13.08192425 44.01186683 -13.10362434 53.01791477 C-13.11404164 57.20021875 -13.12816315 61.38244056 -13.15087891 65.56469727 C-13.17268077 69.60417929 -13.18458407 73.64358248 -13.18975449 77.68311882 C-13.19343709 79.22081683 -13.20062822 80.75851074 -13.21146011 82.296175 C-13.22607289 84.45739032 -13.2279739 86.61828389 -13.22705078 88.77954102 C-13.231492 90.00753922 -13.23593323 91.23553741 -13.24050903 92.50074768 C-12.97788152 96.32180966 -12.17397385 99.36935968 -11 103 C-10.34 103 -9.68 103 -9 103 C-9 103.99 -9 104.98 -9 106 C-7.02 106.33 -5.04 106.66 -3 107 C-2.67 107.99 -2.34 108.98 -2 110 C1.00007271 111.70855022 1.00007271 111.70855022 4 113 C4 114.98 4 116.96 4 119 C-0.29 119.99 -4.58 120.98 -9 122 C-4.96498481 117.96498481 -3.32168808 117.22808186 2 116 C2 115.34 2 114.68 2 114 C0.7625 113.7215625 0.7625 113.7215625 -0.5 113.4375 C-6.37673255 111.02384199 -10.67281724 107.58331719 -13.59619141 101.89306641 C-16.04325046 95.08581827 -15.36645982 87.60292188 -15.29296875 80.46875 C-15.28736562 78.86593017 -15.28309891 77.26310515 -15.28010559 75.66027832 C-15.26871315 71.46477796 -15.23929505 67.26959477 -15.20599365 63.07421875 C-15.17517121 58.7838978 -15.16157437 54.49352503 -15.14648438 50.203125 C-15.11441924 41.80193864 -15.06329173 33.4010089 -15 25 C-14.01 24.67 -13.02 24.34 -12 24 C-11.31513275 22.67592331 -10.65129797 21.34090759 -10 20 C-9.071875 19.1028125 -9.071875 19.1028125 -8.125 18.1875 C-2.94164394 12.85169229 -1.23161917 7.14663231 0 0 Z " fill="#D21D23" transform="translate(278,21)"/>
<path d="M0 0 C15.51 0 31.02 0 47 0 C47 1.65 47 3.3 47 5 C31.16 5 15.32 5 -1 5 C-0.67 3.35 -0.34 1.7 0 0 Z " fill="#9F9F9F" transform="translate(112,213)"/>
<path d="M0 0 C15.84 0 31.68 0 48 0 C47.67 1.65 47.34 3.3 47 5 C31.82 5 16.64 5 1 5 C0.67 3.35 0.34 1.7 0 0 Z " fill="#A0A0A0" transform="translate(111,194)"/>
<path d="M0 0 C15.18 0 30.36 0 46 0 C46.495 2.475 46.495 2.475 47 5 C31.16 5 15.32 5 -1 5 C-0.67 3.35 -0.34 1.7 0 0 Z " fill="#9E9E9E" transform="translate(112,89)"/>
<path d="M0 0 C0.66 0 1.32 0 2 0 C2 5.94 2 11.88 2 18 C4.10375 17.9175 6.2075 17.835 8.375 17.75 C14.58228664 17.78141339 21.05509447 17.8422049 26 22 C30.72416839 29.30345769 30.58654814 36.88464081 30.57421875 45.32421875 C30.58671093 46.71598529 30.60105782 48.10773627 30.61714172 49.49946594 C30.65499574 53.15539792 30.67030663 56.81106112 30.67993164 60.46716309 C30.69235448 64.11166239 30.72190302 67.7560003 30.75195312 71.40039062 C30.76073077 72.46710841 30.76073077 72.46710841 30.76968575 73.55537605 C30.78160921 74.98022878 30.79372409 76.40507991 30.80603409 77.82992935 C30.81814154 79.24096451 30.82982832 80.65200335 30.84109116 82.0630455 C30.91295501 90.90690276 31.03851136 99.74440296 31.39453125 108.58203125 C31.42423508 109.43625168 31.4539389 110.29047211 31.48454285 111.170578 C31.72675919 116.35801994 32.58959652 120.99934843 34 126 C32.0625 124.9375 32.0625 124.9375 30 123 C28.9733852 117.87480847 28.85448714 112.79758732 28.8581543 107.58959961 C28.85294266 106.37357307 28.85294266 106.37357307 28.84762573 105.13298035 C28.84031167 103.38426831 28.8349433 101.63554726 28.83133507 99.88682365 C28.82412503 97.1163328 28.80842744 94.34601452 28.78999329 91.57557678 C28.73771819 83.70267001 28.68951945 75.82986398 28.67407227 67.95678711 C28.66398593 63.13097876 28.63465527 58.30561498 28.59275246 53.47998238 C28.5804576 51.64564946 28.57531843 49.81125378 28.57755089 47.97688103 C28.57990658 45.41110624 28.55772168 42.84660792 28.5300293 40.28100586 C28.53663071 39.52811279 28.54323212 38.77521973 28.55003357 37.99951172 C28.45880409 32.84139841 27.07060774 30.07063189 24 26 C24 25.34 24 24.68 24 24 C23.0925 24.0825 22.185 24.165 21.25 24.25 C18 24 18 24 16.25 22.03125 C13.14546046 19.22854069 10.87198324 19.40266605 6.75 19.25 C4.5225 19.1675 2.295 19.085 0 19 C0 12.73 0 6.46 0 0 Z " fill="#FEF7CC" transform="translate(232,0)"/>
<path d="M0 0 C0.65407333 -0.00058411 1.30814667 -0.00116821 1.98204041 -0.00177002 C4.13603476 0.00100857 6.28863138 0.03208609 8.44238281 0.06347656 C9.93881474 0.07093985 11.43525646 0.07663237 12.93170166 0.08062744 C16.86435071 0.09587717 20.79640589 0.13515244 24.7288208 0.17944336 C28.74393684 0.22041083 32.75914913 0.23864156 36.77441406 0.25878906 C44.64838407 0.30164808 52.521872 0.36989053 60.39550781 0.45410156 C60.39550781 0.78410156 60.39550781 1.11410156 60.39550781 1.45410156 C38.61550781 1.78410156 16.83550781 2.11410156 -5.60449219 2.45410156 C15.84550781 2.78410156 37.29550781 3.11410156 59.39550781 3.45410156 C59.39550781 3.78410156 59.39550781 4.11410156 59.39550781 4.45410156 C37.61550781 4.78410156 15.83550781 5.11410156 -6.60449219 5.45410156 C-6.93449219 31.52410156 -7.26449219 57.59410156 -7.60449219 84.45410156 C-7.93449219 84.45410156 -8.26449219 84.45410156 -8.60449219 84.45410156 C-8.61479965 83.51085022 -8.62510712 82.56759888 -8.63572693 81.59576416 C-8.73346482 72.70839531 -8.83619932 63.8210964 -8.94383144 54.93384171 C-8.99900595 50.36477295 -9.0524172 45.79569774 -9.10180664 41.2265625 C-9.14953091 36.81746639 -9.20187662 32.40844719 -9.25743294 27.99944305 C-9.27781996 26.31695215 -9.29653903 24.63444019 -9.31356621 22.95191193 C-9.33769115 20.59611906 -9.36773451 18.2404707 -9.39916992 15.88476562 C-9.40780312 14.84035309 -9.40780312 14.84035309 -9.41661072 13.77484131 C-9.47381782 9.94262617 -9.47381782 9.94262617 -10.36732483 6.23968506 C-10.60449219 4.45410156 -10.60449219 4.45410156 -9.07977295 2.23248291 C-5.85714094 -0.08283774 -3.94970388 -0.02969702 0 0 Z " fill="#B9B9B9" transform="translate(104.6044921875,141.5458984375)"/>
<path d="M0 0 C8.55350523 -0.04631606 17.10695816 -0.08186543 25.66055775 -0.10362434 C29.63223 -0.11406689 33.60381654 -0.12823463 37.57543945 -0.15087891 C41.40742016 -0.17259058 45.23931835 -0.18456508 49.07135582 -0.18975449 C50.53421007 -0.19345326 51.99705975 -0.20067596 53.45987892 -0.21146011 C55.50696236 -0.22595298 57.55370369 -0.2279789 59.60083008 -0.22705078 C60.76665115 -0.231492 61.93247223 -0.23593323 63.13362122 -0.24050903 C66 0 66 0 69 2 C69.28644682 4.63257753 69.37843744 7.02911842 69.34057617 9.66259766 C69.34123329 10.84809456 69.34123329 10.84809456 69.34190369 12.05754089 C69.33980932 14.6766305 69.31644826 17.29508437 69.29296875 19.9140625 C69.28737509 21.7272405 69.28310391 23.54042303 69.28010559 25.35360718 C69.26863869 30.13114898 69.23915575 34.90841814 69.20599365 39.68585205 C69.17533243 44.55875968 69.16160871 49.43171126 69.14648438 54.3046875 C69.11428773 63.8699116 69.0630692 73.43493315 69 83 C68.67 83 68.34 83 68 83 C67.67 56.93 67.34 30.86 67 4 C64.19958289 2.59979145 61.84697961 2.83636665 58.71435547 2.79467773 C58.07032776 2.78477814 57.42630005 2.77487854 56.76275635 2.76467896 C54.63093765 2.73305501 52.49909665 2.70830313 50.3671875 2.68359375 C48.89030371 2.66302498 47.41342582 2.64202853 45.93655396 2.62062073 C42.04694389 2.56539201 38.15728063 2.5159863 34.26757812 2.46777344 C30.29943093 2.41756423 26.33136111 2.36187514 22.36328125 2.30664062 C14.57558633 2.19904928 6.78782714 2.09760652 -1 2 C-0.67 1.34 -0.34 0.68 0 0 Z " fill="#8F8F8F" transform="translate(99,143)"/>
<path d="M0 0 C17.82 0 35.64 0 54 0 C54 1.32 54 2.64 54 4 C36.18 4 18.36 4 0 4 C0 2.68 0 1.36 0 0 Z " fill="#939393" transform="translate(105,159)"/>
<path d="M0 0 C0.33 0 0.66 0 1 0 C1.02505615 0.59949463 1.0501123 1.19898926 1.07592773 1.81665039 C1.19285773 4.56543324 1.31513947 7.31395375 1.4375 10.0625 C1.47681641 11.00544922 1.51613281 11.94839844 1.55664062 12.91992188 C1.78725396 18.01115478 2.1699127 22.97064756 3 28 C3.66 28 4.32 28 5 28 C5.20625 28.886875 5.4125 29.77375 5.625 30.6875 C8.54094523 37.71227714 14.73490542 40.05407561 21.36328125 42.9296875 C24.2069013 44.0839866 27.05758959 45.12522934 30 46 C30 46.66 30 47.32 30 48 C23.4 48 16.8 48 10 48 C9.34 46.68 8.68 45.36 8 44 C7.34 43.67 6.68 43.34 6 43 C6.0825 42.13375 6.165 41.2675 6.25 40.375 C5.94001654 36.19022327 4.43248074 34.3625469 2 31 C0.12076209 27.14694816 -0.23735893 24.09193175 -0.1953125 19.82421875 C-0.18886719 18.66728516 -0.18242187 17.51035156 -0.17578125 16.31835938 C-0.15902344 15.12017578 -0.14226563 13.92199219 -0.125 12.6875 C-0.11597656 11.46998047 -0.10695313 10.25246094 -0.09765625 8.99804688 C-0.07413037 5.99849726 -0.04125653 2.99934956 0 0 Z " fill="#FBF8E6" transform="translate(18,224)"/>
<path d="M0 0 C0.66 0 1.32 0 2 0 C2.26524898 29.00055503 1.46688261 58.03687096 0 87 C-0.99 87.495 -0.99 87.495 -2 88 C-2.48919922 86.89591797 -2.48919922 86.89591797 -2.98828125 85.76953125 C-3.42527344 84.79371094 -3.86226563 83.81789063 -4.3125 82.8125 C-4.74175781 81.84957031 -5.17101562 80.88664062 -5.61328125 79.89453125 C-6.92912311 77.14794304 -8.38987257 74.58281438 -10 72 C-7.53199953 73.15173355 -5.95216435 74.04783565 -4 76 C-4 76.99 -4 77.98 -4 79 C-3.34 79 -2.68 79 -2 79 C-2.00523682 78.13197754 -2.01047363 77.26395508 -2.01586914 76.36962891 C-2.03289862 73.15299727 -2.04544408 69.93638859 -2.05493164 66.71972656 C-2.0599643 65.32681523 -2.06679098 63.9339092 -2.07543945 62.54101562 C-2.08755152 60.54038754 -2.09270412 58.53972112 -2.09765625 56.5390625 C-2.10289307 55.33459473 -2.10812988 54.13012695 -2.11352539 52.88916016 C-2 50 -2 50 -1 48 C-0.88177029 46.45857825 -0.82300189 44.91238903 -0.79467773 43.36669922 C-0.7647599 41.92543167 -0.7647599 41.92543167 -0.73423767 40.45504761 C-0.70916893 38.89561935 -0.70916893 38.89561935 -0.68359375 37.3046875 C-0.66281265 36.24210724 -0.64203156 35.17952698 -0.62062073 34.08474731 C-0.55509739 30.68156562 -0.49622727 27.27830511 -0.4375 23.875 C-0.39431743 21.57160634 -0.35070323 19.26822074 -0.30664062 16.96484375 C-0.19941318 11.30997979 -0.09765198 5.65503697 0 0 Z " fill="#DC1817" transform="translate(281,160)"/>
<path d="M0 0 C0.66 0 1.32 0 2 0 C2.66 1.98 3.32 3.96 4 6 C4.66 6 5.32 6 6 6 C6.01030746 6.90407593 6.02061493 7.80815186 6.03123474 8.73962402 C6.12988759 17.32892201 6.23248753 25.91816232 6.33933926 34.50736237 C6.39411649 38.92139035 6.44745523 43.33542523 6.49731445 47.74951172 C6.54563598 52.02249426 6.59798674 56.29541139 6.65294075 60.5683136 C6.6730624 62.18506709 6.69181818 63.80183826 6.70907402 65.41862488 C6.79633092 73.51089045 6.94717482 81.60137251 7.33227539 89.68554688 C7.38742813 90.92719604 7.44258087 92.16884521 7.49940491 93.44812012 C8.23517588 98.66864696 10.06005699 102.59008548 13 107 C10.50638429 105.79618552 8.31856917 104.54571278 6 103 C4.72543175 99.17629526 4.80133355 95.54390736 4.75048828 91.55639648 C4.73565399 90.69419998 4.7208197 89.83200348 4.70553589 88.94367981 C4.67361833 87.06942821 4.64371477 85.1951415 4.61557388 83.32082939 C4.56995627 80.34787761 4.51695602 77.37514524 4.4616394 74.40235901 C4.30493079 65.94900003 4.15557692 57.49556791 4.02587891 49.04174805 C3.94600857 43.87034542 3.85234871 38.69934303 3.75005722 33.52833748 C3.71383513 31.56339338 3.68274194 29.5983474 3.65701675 27.63323784 C3.55075014 13.54681501 3.55075014 13.54681501 0 0 Z " fill="#FAC1BA" transform="translate(33,144)"/>
<path d="M0 0 C0.33 0 0.66 0 1 0 C3.64668256 28.00398181 4.17147777 55.89611321 4 84 C4.66 84 5.32 84 6 84 C5.67 86.31 5.34 88.62 5 91 C1.83188709 87.83188709 1.87571381 84.5269886 1.70288086 80.18847656 C1.66292496 79.22994278 1.62296906 78.271409 1.58180237 77.28382874 C1.54320602 76.2465715 1.50460968 75.20931427 1.46484375 74.140625 C1.42177597 73.05498764 1.37870819 71.96935028 1.33433533 70.85081482 C1.19666013 67.31739232 1.06645313 63.78375089 0.9375 60.25 C0.87021698 58.46005112 0.87021698 58.46005112 0.80157471 56.63394165 C0.0974131 37.74646914 -0.28612298 18.89952303 0 0 Z " fill="#DC1B1B" transform="translate(17,160)"/>
<path d="M0 0 C15.51 0 31.02 0 47 0 C47 1.32 47 2.64 47 4 C31.49 4 15.98 4 0 4 C0 2.68 0 1.36 0 0 Z " fill="#909090" transform="translate(112,176)"/>
<path d="M0 0 C15.18 0 30.36 0 46 0 C46 1.32 46 2.64 46 4 C30.82 4 15.64 4 0 4 C0 2.68 0 1.36 0 0 Z " fill="#919191" transform="translate(112,109)"/>
<path d="M0 0 C15.18 0 30.36 0 46 0 C46 1.32 46 2.64 46 4 C30.82 4 15.64 4 0 4 C0 2.68 0 1.36 0 0 Z " fill="#909090" transform="translate(112,71)"/>
<path d="M0 0 C0.66 0 1.32 0 2 0 C2.33 4.95 2.66 9.9 3 15 C5.9390625 15.12375 5.9390625 15.12375 8.9375 15.25 C14.78197885 15.70989342 20.17471734 16.44821809 25 20 C26.0625 22.75 26.0625 22.75 26 25 C26.66 25 27.32 25 28 25 C29.10802759 28.56799769 29.12052267 31.88194176 29.11352539 35.60449219 C29.11367142 36.25856552 29.11381744 36.91263885 29.1139679 37.58653259 C29.11327341 39.74001426 29.10550283 41.89340852 29.09765625 44.046875 C29.09579042 45.54331414 29.09436729 47.03975388 29.09336853 48.53619385 C29.08955635 52.46858415 29.07973717 56.40093732 29.06866455 60.33331299 C29.05842249 64.34850563 29.05386492 68.3637043 29.04882812 72.37890625 C29.03811372 80.25262117 29.02105291 88.12630596 29 96 C28.67 96 28.34 96 28 96 C27.99120064 94.80849083 27.99120064 94.80849083 27.98222351 93.59291077 C27.9241134 86.07555756 27.85193332 78.5585289 27.76428509 71.04146671 C27.71972058 67.17764977 27.68043471 63.31393489 27.65356445 59.44995117 C27.62739135 55.71499516 27.58689254 51.98043488 27.53681374 48.24572563 C27.52023901 46.82696932 27.50866661 45.40814472 27.50238609 43.9893055 C27.46389274 36.08644139 27.22128296 29.28862368 24 22 C21.85190654 20.55743757 21.85190654 20.55743757 19.375 20.5 C18.57835937 20.4071875 17.78171875 20.314375 16.9609375 20.21875 C16.31382812 20.1465625 15.66671875 20.074375 15 20 C14.67 19.67 14.34 19.34 14 19 C11.65012738 18.76472227 9.29443961 18.58613583 6.9375 18.4375 C4.648125 18.293125 2.35875 18.14875 0 18 C0 12.06 0 6.12 0 0 Z " fill="#EC914A" transform="translate(234,0)"/>
<path d="M0 0 C1.33333333 0 2.66666667 0 4 0 C4.0694077 10.65688885 4.12276419 21.31372422 4.15543652 31.97079277 C4.17111495 36.91892333 4.19239277 41.86689964 4.22631836 46.81494141 C4.2588344 51.58708341 4.2768366 56.35907675 4.28463173 61.13132095 C4.29018923 62.95506253 4.30104119 64.77879567 4.31719017 66.60247421 C4.33886167 69.1503657 4.34197129 71.69763715 4.34057617 74.24560547 C4.351362 75.00517548 4.36214783 75.76474548 4.3732605 76.54733276 C4.36076355 78.64645386 4.36076355 78.64645386 4 82 C2.515 82.99 2.515 82.99 1 84 C0.34 83.34 -0.32 82.68 -1 82 C-0.34 82 0.32 82 1 82 C0.67 54.94 0.34 27.88 0 0 Z " fill="#9E9E9E" transform="translate(165,146)"/>
<path d="M0 0 C0.33 0 0.66 0 1 0 C1.01981934 0.71841064 1.03963867 1.43682129 1.06005859 2.17700195 C1.52114406 18.14813647 2.31002756 33.93547453 4.52734375 49.76464844 C5.02679518 53.77609938 5.09871031 57.70866159 5.0625 61.75390625 C5.05871338 62.45845444 5.05492676 63.16300262 5.05102539 63.88890076 C5.03894464 66.11350032 5.02032647 68.3379615 5 70.5625 C4.97321116 73.50129909 4.95331658 76.44002983 4.9375 79.37890625 C4.92589844 80.6738501 4.91429687 81.96879395 4.90234375 83.30297852 C4.99947196 86.9800096 5.40567499 90.37760078 6 94 C5.34 93.67 4.68 93.34 4 93 C1.75748631 86.09390521 1.60471248 78.67826978 1.3671875 71.484375 C1.32553467 70.40175888 1.28388184 69.31914276 1.2409668 68.20372009 C1.11007533 64.71940494 0.99186421 61.23481159 0.875 57.75 C0.78928786 55.35912861 0.70351292 52.96825948 0.61767578 50.57739258 C0.03242541 33.71273694 -0.27998203 16.8743015 0 0 Z " fill="#F9BAB2" transform="translate(281,26)"/>
<path d="M0 0 C2.59805508 1.29902754 2.6672643 2.22628947 3.59301758 4.93359375 C5.185901 10.01598745 5.47324973 14.76558848 5.51171875 20.0625 C5.53871353 21.47551895 5.53871353 21.47551895 5.56625366 22.91708374 C5.62046636 25.94468102 5.65444411 28.97210461 5.6875 32 C5.72024031 34.07635117 5.75401599 36.15268627 5.78881836 38.22900391 C6.01434445 52.48485885 6.13013787 66.74267376 6 81 C5.01 81.495 5.01 81.495 4 82 C3.34 56.92 2.68 31.84 2 6 C1.34 6 0.68 6 0 6 C0 4.02 0 2.04 0 0 Z " fill="#D42725" transform="translate(32,144)"/>
<path d="M0 0 C0.33 0 0.66 0 1 0 C1.02061493 0.64178192 1.04122986 1.28356384 1.06246948 1.9447937 C1.27987018 8.66179983 1.50895076 15.37833743 1.74462891 22.09472656 C1.83092206 24.59690488 1.91429841 27.09918565 1.99462891 29.6015625 C2.11102411 33.21125071 2.23811912 36.82043283 2.3671875 40.4296875 C2.40061249 41.53738495 2.43403748 42.6450824 2.46847534 43.78634644 C2.40323089 55.84908228 2.40323089 55.84908228 7.625 66.0625 C11.6983916 68.40092851 14.35184056 68.75957796 19 69 C19 69.33 19 69.66 19 70 C14.38 70.33 9.76 70.66 5 71 C4.67 69.68 4.34 68.36 4 67 C3.67 66.67 3.34 66.34 3 66 C2.95919217 64.00041636 2.95745644 61.99954746 3 60 C2.34 60 1.68 60 1 60 C0.02602714 56.73897134 -0.12117518 53.80178129 -0.11352539 50.40527344 C-0.11344986 49.28441345 -0.11337433 48.16355347 -0.11329651 47.00872803 C-0.10813522 45.80444153 -0.10297394 44.60015503 -0.09765625 43.359375 C-0.09553383 41.50339691 -0.09553383 41.50339691 -0.09336853 39.60992432 C-0.0887211 36.32855059 -0.07974347 33.04722627 -0.06866455 29.76586914 C-0.0584152 26.41422989 -0.05394859 23.06258852 -0.04882812 19.7109375 C-0.03780025 13.14060569 -0.02106296 6.57030689 0 0 Z " fill="#D51A1C" transform="translate(281,56)"/>
<path d="M0 0 C0.33 0 0.66 0 1 0 C1.14969202 19.32639125 0.97533852 38.64928209 0.68161011 57.97363281 C0.64382514 60.53592242 0.60942963 63.09826422 0.57839966 65.66064453 C0.53323203 69.30132543 0.47531034 72.94158985 0.4140625 76.58203125 C0.40250626 77.69008621 0.39095001 78.79814117 0.37904358 79.93977356 C0.35917892 80.95843002 0.33931427 81.97708649 0.31884766 83.02661133 C0.30552399 83.91826492 0.29220032 84.80991852 0.2784729 85.72859192 C0 88 0 88 -2 91 C-2.66 91 -3.32 91 -4 91 C-4.33 92.65 -4.66 94.3 -5 96 C-6.24546405 93.50907189 -5.7767578 92.58919267 -5 90 C-4.34 90 -3.68 90 -3 90 C-2.01 60.3 -1.02 30.6 0 0 Z " fill="#F9B7AF" transform="translate(283,160)"/>
<path d="M0 0 C2 2 2 2 2 5 C1.01 5 0.02 5 -1 5 C-1.01981934 5.96035156 -1.03963867 6.92070312 -1.06005859 7.91015625 C-1.65784283 36.29133645 -2.73882956 64.64110475 -4 93 C-4.33 93 -4.66 93 -5 93 C-5.22313397 72.31719747 -5.13094744 51.6598375 -4.30828857 30.98956299 C-4.22807899 28.96284241 -4.15239959 26.93593723 -4.08135986 24.90887451 C-3.97886244 22.05172201 -3.85762264 19.19599293 -3.73046875 16.33984375 C-3.70219498 15.49664078 -3.6739212 14.65343781 -3.64479065 13.78468323 C-3.38122062 8.53578856 -2.3494041 4.71103442 0 0 Z " fill="#D33A39" transform="translate(22,19)"/>
<path d="M0 0 C0.6875 1.8125 0.6875 1.8125 1 4 C-0.3125 5.4375 -0.3125 5.4375 -2 7 C-3.19027984 9.59915538 -3.19027984 9.59915538 -4 12 C-4.99 12 -5.98 12 -7 12 C-7 12.66 -7 13.32 -7 14 C-12.28 14 -17.56 14 -23 14 C-23 13.34 -23 12.68 -23 12 C-22.39414063 11.78085937 -21.78828125 11.56171875 -21.1640625 11.3359375 C-13.50014572 8.43543977 -6.80183935 4.53455957 0 0 Z " fill="#F8FEF0" transform="translate(275,258)"/>
<path d="M0 0 C17.82 0 35.64 0 54 0 C54 1.65 54 3.3 54 5 C36.18 5 18.36 5 0 5 C0 3.35 0 1.7 0 0 Z M1 1 C1 1.99 1 2.98 1 4 C17.17 4 33.34 4 50 4 C50 3.01 50 2.02 50 1 C33.83 1 17.66 1 1 1 Z " fill="#AEAEAE" transform="translate(105,54)"/>
<path d="M0 0 C0.54785156 0.33773437 1.09570312 0.67546875 1.66015625 1.0234375 C9.4305362 5.3950659 16.22746749 6.12274675 25 7 C25 12.61 25 18.22 25 24 C24.01 24 23.02 24 22 24 C22 19.05 22 14.1 22 9 C20.453125 9.020625 18.90625 9.04125 17.3125 9.0625 C13.73826265 9.06756984 10.47548666 8.92679644 7 8 C6.67 8.66 6.34 9.32 6 10 C4.35 9.67 2.7 9.34 1 9 C1.33 8.01 1.66 7.02 2 6 C1.34 5.01 0.68 4.02 0 3 C0 2.01 0 1.02 0 0 Z " fill="#F5AF24" transform="translate(41,248)"/>
<path d="M0 0 C1.31744638 3.96472473 1.10642475 7.9629698 1.0534668 12.08569336 C1.04707184 12.89754593 1.04067688 13.7093985 1.03408813 14.54585266 C1.01132245 17.22726696 0.98070222 19.90851855 0.94921875 22.58984375 C0.92998263 24.4554476 0.91092695 26.32105331 0.89204407 28.18666077 C0.85107284 32.09641526 0.80585239 36.00609474 0.75805664 39.91577148 C0.69746615 44.92373835 0.65054889 49.9317297 0.60722637 54.93987179 C0.57184893 58.79269478 0.52761353 62.6453789 0.48087502 66.4980793 C0.45984508 68.34440413 0.44193818 70.1907673 0.4272213 72.03715324 C0.40562081 74.61994609 0.37170328 77.20229996 0.3347168 79.78491211 C0.33098557 80.54611359 0.32725433 81.30731506 0.32341003 82.09158325 C0.22202973 87.78333421 -0.86988988 91.30483482 -4 96 C-4.66 96 -5.32 96 -6 96 C-5.56437773 92.51502184 -4.84860554 89.5089931 -3.48306274 86.29501343 C-1.86058863 82.03825167 -1.56451571 78.30150334 -1.58349609 73.77978516 C-1.57061806 72.61242325 -1.57061806 72.61242325 -1.55747986 71.42147827 C-1.53260625 68.87724508 -1.52805891 66.3334057 -1.5234375 63.7890625 C-1.50911435 62.01165593 -1.49335498 60.23426041 -1.47622681 58.45687866 C-1.43452717 53.79870791 -1.4094245 49.14060573 -1.38873291 44.4822998 C-1.35279841 37.00568702 -1.29200475 29.52924289 -1.23024368 22.05280685 C-1.21113769 19.4414245 -1.1994231 16.83008755 -1.18881226 14.21865845 C-1.17860534 12.62705382 -1.16824786 11.03545016 -1.15771484 9.44384766 C-1.15667252 8.71554749 -1.15563019 7.98724731 -1.15455627 7.23687744 C-1.11342954 2.22685908 -1.11342954 2.22685908 0 0 Z " fill="#FFE4DC" transform="translate(262,154)"/>
<path d="M0 0 C2 1 2 1 2.61889648 2.79199219 C3.00392085 5.02271632 3.11381451 7.06596839 3.09765625 9.328125 C3.09443359 10.12734375 3.09121094 10.9265625 3.08789062 11.75 C3.07951172 12.575 3.07113281 13.4 3.0625 14.25 C3.05798828 15.09046875 3.05347656 15.9309375 3.04882812 16.796875 C3.03707961 18.86461401 3.01914522 20.93231624 3 23 C2.67 23 2.34 23 2 23 C1.34 19.7 0.68 16.4 0 13 C-0.60328125 13.77085938 -1.2065625 14.54171875 -1.828125 15.3359375 C-3.02695312 16.84027344 -3.02695312 16.84027344 -4.25 18.375 C-5.03890625 19.37273438 -5.8278125 20.37046875 -6.640625 21.3984375 C-9 24 -9 24 -13 26 C-13.33 31.61 -13.66 37.22 -14 43 C-14.33 43 -14.66 43 -15 43 C-15 37.06 -15 31.12 -15 25 C-14.01 24.67 -13.02 24.34 -12 24 C-11.31513275 22.67592331 -10.65129797 21.34090759 -10 20 C-9.071875 19.1028125 -9.071875 19.1028125 -8.125 18.1875 C-2.94164394 12.85169229 -1.23161917 7.14663231 0 0 Z " fill="#DA1F08" transform="translate(278,21)"/>
<path d="M0 0 C0.33 0 0.66 0 1 0 C1.01030746 0.57755035 1.02061493 1.15510071 1.03123474 1.75015259 C1.14131983 7.88477473 1.2556939 14.0193073 1.37231445 20.15380859 C1.41503145 22.4285287 1.45673516 24.7032681 1.49731445 26.97802734 C1.70717231 38.70415882 1.9542745 50.42895301 2.41015625 62.1484375 C2.45323158 63.46903671 2.45323158 63.46903671 2.49717712 64.8163147 C2.72661734 70.13753434 3.54122813 74.87414558 5 80 C3.0625 78.9375 3.0625 78.9375 1 77 C0.06617997 72.23965124 -0.12227918 67.62038912 -0.11352539 62.77954102 C-0.11367142 62.09576889 -0.11381744 61.41199677 -0.1139679 60.70750427 C-0.11327755 58.47293803 -0.10552677 56.23845772 -0.09765625 54.00390625 C-0.09578895 52.44449407 -0.09436652 50.88508131 -0.09336853 49.32566833 C-0.08956796 45.24043124 -0.07975891 41.15523025 -0.06866455 37.07000732 C-0.05839731 32.89368172 -0.05385957 28.71735024 -0.04882812 24.54101562 C-0.03813423 16.3606606 -0.02108765 8.1803348 0 0 Z " fill="#FEE6DC" transform="translate(261,46)"/>
<path d="M0 0 C6.6 0 13.2 0 20 0 C19.67 2.64 19.34 5.28 19 8 C20.32 8.33 21.64 8.66 23 9 C23 9.66 23 10.32 23 11 C23.66 11 24.32 11 25 11 C25.33 12.65 25.66 14.3 26 16 C25.67 15.34 25.34 14.68 25 14 C22.98330173 12.86649466 22.98330173 12.86649466 21 12 C21 11.34 21 10.68 21 10 C18.34771188 8.92474806 15.71631546 7.90543849 13 7 C13 6.34 13 5.68 13 5 C8.71 4.01 4.42 3.02 0 2 C0 1.34 0 0.68 0 0 Z " fill="#FCF6DA" transform="translate(251,0)"/>
<path d="M0 0 C1.66666667 1.66666667 3.33333333 3.33333333 5 5 C5.70735291 5.56914124 6.41470581 6.13828247 7.14349365 6.72467041 C9.74462457 9.91261004 9.48224337 12.07471081 9.45410156 16.15527344 C9.45468567 16.86786819 9.45526978 17.58046295 9.45587158 18.31465149 C9.45309109 20.6633931 9.42200323 23.0108559 9.390625 25.359375 C9.38316243 26.99032905 9.37746957 28.62129207 9.37347412 30.2522583 C9.35821892 34.53998677 9.31893854 38.82717119 9.2746582 43.11468506 C9.23370277 47.49174643 9.21546255 51.86889591 9.1953125 56.24609375 C9.15244377 64.83097852 9.08419435 73.41542154 9 82 C8.67 82 8.34 82 8 82 C8 58.57 8 35.14 8 11 C4.23570226 9 4.23570226 9 1 8 C0.67 5.36 0.34 2.72 0 0 Z " fill="#EB0A04" transform="translate(27,32)"/>
<path d="M0 0 C0.66 0.33 1.32 0.66 2 1 C1.67 1.66 1.34 2.32 1 3 C2.299375 2.979375 3.59875 2.95875 4.9375 2.9375 C6.29165633 2.91600546 7.64756083 2.92851801 9 3 C9.33 3.33 9.66 3.66 10 4 C11.68608966 4.07205511 13.37500659 4.08386068 15.0625 4.0625 C15.98160156 4.05347656 16.90070313 4.04445313 17.84765625 4.03515625 C18.55792969 4.02355469 19.26820313 4.01195312 20 4 C20 3.34 20 2.68 20 2 C23.465 1.505 23.465 1.505 27 1 C22.59471979 4.55811094 18.75487737 7 13 7 C13 7.66 13 8.32 13 9 C8.38 9 3.76 9 -1 9 C-0.67 6.03 -0.34 3.06 0 0 Z " fill="#F9AF06" transform="translate(239,263)"/>
<path d="M0 0 C0 1.32 0 2.64 0 4 C-3.0682638 4.89749822 -5.79269976 5.11711768 -8.984375 5.09765625 C-9.91894531 5.09443359 -10.85351562 5.09121094 -11.81640625 5.08789062 C-12.78449219 5.07951172 -13.75257813 5.07113281 -14.75 5.0625 C-15.73355469 5.05798828 -16.71710938 5.05347656 -17.73046875 5.04882812 C-20.15370791 5.03706483 -22.57682273 5.02062684 -25 5 C-25 3.68 -25 2.36 -25 1 C-21.20836402 0.8326303 -17.4166864 0.66622322 -13.625 0.5 C-12.54476562 0.45230469 -11.46453125 0.40460938 -10.3515625 0.35546875 C-9.3203125 0.31035156 -8.2890625 0.26523438 -7.2265625 0.21875 C-6.27346191 0.17685547 -5.32036133 0.13496094 -4.33837891 0.09179688 C-2.89304218 0.03505783 -1.44644999 0 0 0 Z " fill="#9A9A9A" transform="translate(205,185)"/>
<path d="M0 0 C2.0625 0.4375 2.0625 0.4375 4 1 C4.5625 2.9375 4.5625 2.9375 5 5 C4.67 5.33 4.34 5.66 4 6 C3.76321284 8.69235776 3.57801975 11.36498156 3.4375 14.0625 C3.39431641 14.82111328 3.35113281 15.57972656 3.30664062 16.36132812 C3.20026367 18.24065438 3.09960066 20.12030244 3 22 C2.34 22 1.68 22 1 22 C1 16.39 1 10.78 1 5 C-0.485 5.04125 -1.97 5.0825 -3.5 5.125 C-8.34153611 5.13879355 -12.37051846 4.37169823 -17 3 C-17 2.67 -17 2.34 -17 2 C-15.85660156 1.93941406 -14.71320312 1.87882813 -13.53515625 1.81640625 C-12.04425695 1.73201572 -10.55337225 1.64736698 -9.0625 1.5625 C-8.30775391 1.52318359 -7.55300781 1.48386719 -6.77539062 1.44335938 C-3.08055813 1.55961976 -3.08055813 1.55961976 0 0 Z " fill="#FDF4CF" transform="translate(65,250)"/>
<path d="M0 0 C0.625 1.875 0.625 1.875 1 4 C-1.3129482 6.3129482 -2.47904875 6.49580975 -5.625 7.125 C-6.44226563 7.29257813 -7.25953125 7.46015625 -8.1015625 7.6328125 C-9.04128906 7.81457031 -9.04128906 7.81457031 -10 8 C-10 8.66 -10 9.32 -10 10 C-14.62 10 -19.24 10 -24 10 C-24 15.28 -24 20.56 -24 26 C-24.66 26 -25.32 26 -26 26 C-26 20.06 -26 14.12 -26 8 C-23.89625 7.896875 -21.7925 7.79375 -19.625 7.6875 C-10.51461945 7.06095544 -10.51461945 7.06095544 -2 4 C-0.70788352 1.98603967 -0.70788352 1.98603967 0 0 Z " fill="#EFB73A" transform="translate(260,246)"/>
<path d="M0 0 C2.475 0.495 2.475 0.495 5 1 C5 28.06 5 55.12 5 83 C4.67 83 4.34 83 4 83 C4 56.6 4 30.2 4 3 C3.34 3 2.68 3 2 3 C2 2.34 2 1.68 2 1 C1.34 0.67 0.68 0.34 0 0 Z " fill="#8F8F8F" transform="translate(163,39)"/>
<path d="M0 0 C1.4417575 2.88351501 0.28909285 4.81338507 -0.5085144 7.7906189 C-1.26700108 11.20025314 -1.2278805 14.5800209 -1.16015625 18.05078125 C-1.15495468 18.79023483 -1.14975311 19.52968842 -1.14439392 20.29154968 C-1.12676744 22.63207812 -1.0956742 24.9721446 -1.0625 27.3125 C-0.78464558 50.50488728 -0.78464558 50.50488728 -2 56 C-2.99 56.495 -2.99 56.495 -4 57 C-4.04072909 46.38690495 -3.9867671 35.77949869 -3.73754883 25.16894531 C-3.70379483 23.62185972 -3.67593068 22.07463587 -3.65356445 20.52734375 C-3.61997601 18.24428224 -3.56781694 15.96229354 -3.51171875 13.6796875 C-3.50532883 12.99526581 -3.4989389 12.31084412 -3.49235535 11.60568237 C-3.35347115 7.0546192 -2.28336468 3.91965579 0 0 Z " fill="#FEE8DE" transform="translate(287,151)"/>
<path d="M0 0 C-7.40781611 3.55575173 -13.82692078 3.2357619 -22 3 C-22 8.94 -22 14.88 -22 21 C-22.66 21 -23.32 21 -24 21 C-24 15.72 -24 10.44 -24 5 C-24.66 5 -25.32 5 -26 5 C-26 4.34 -26 3.68 -26 3 C-22.30127966 0.53418644 -20.03667094 0.64118225 -15.625 0.4375 C-10.38230916 0.20580063 -10.38230916 0.20580063 -5.2109375 -0.58984375 C-3 -1 -3 -1 0 0 Z " fill="#FEF4CA" transform="translate(256,251)"/>
<path d="M0 0 C0.33 0 0.66 0 1 0 C1.33 22.11 1.66 44.22 2 67 C3.32 67.33 4.64 67.66 6 68 C6.33 69.32 6.66 70.64 7 72 C4.50638429 70.79618552 2.31856917 69.54571278 0 68 C-0.36076355 65.177948 -0.36076355 65.177948 -0.34057617 61.53076172 C-0.34101425 60.86722687 -0.34145233 60.20369202 -0.34190369 59.52005005 C-0.33981068 57.322965 -0.31645699 55.12663951 -0.29296875 52.9296875 C-0.28737458 51.4079734 -0.28310364 49.8862539 -0.28010559 48.36453247 C-0.26864261 44.35635501 -0.2391633 40.34850288 -0.20599365 36.3404541 C-0.17532384 32.25175376 -0.16160689 28.16300093 -0.14648438 24.07421875 C-0.11429467 16.04932975 -0.06308116 8.02470532 0 0 Z " fill="#E70E06" transform="translate(264,159)"/>
<path d="M0 0 C0 0.66 0 1.32 0 2 C-0.66 2 -1.32 2 -2 2 C-2.33 2.99 -2.66 3.98 -3 5 C-4.65 5.33 -6.3 5.66 -8 6 C-6.68 7.32 -5.36 8.64 -4 10 C-4.66 10.66 -5.32 11.32 -6 12 C-6 11.34 -6 10.68 -6 10 C-6.763125 10.309375 -7.52625 10.61875 -8.3125 10.9375 C-10.18789677 11.67893593 -12.08684652 12.36228217 -14 13 C-13.42415568 10.61435923 -12.77772405 8.33317216 -12 6 C-13.32 5.67 -14.64 5.34 -16 5 C-14.27656245 4.15488176 -12.54595947 3.32436646 -10.8125 2.5 C-9.36810547 1.80390625 -9.36810547 1.80390625 -7.89453125 1.09375 C-5.01077307 0.00407079 -3.04645139 -0.22277524 0 0 Z " fill="#F7B224" transform="translate(54,0)"/>
<path d="M0 0 C0.99 0 1.98 0 3 0 C3 1.32 3 2.64 3 4 C3.99 4 4.98 4 6 4 C6 4.66 6 5.32 6 6 C6.66 6 7.32 6 8 6 C8.33 7.32 8.66 8.64 9 10 C7.02 10 5.04 10 3 10 C3 9.34 3 8.68 3 8 C2.40832031 7.89042969 1.81664062 7.78085937 1.20703125 7.66796875 C-3.41345763 6.74085597 -7.0876779 5.77648665 -11 3 C-8.21176345 1.9673198 -7.1322726 1.95490707 -4.25 2.9375 C-3.5075 3.288125 -2.765 3.63875 -2 4 C-1.34 2.68 -0.68 1.36 0 0 Z " fill="#F8A80E" transform="translate(45,262)"/>
<path d="M0 0 C9.43384267 5.34584418 13.03134308 12.04582773 17 22 C17 22.66 17 23.32 17 24 C16.34 24 15.68 24 15 24 C14.62488281 23.07316406 14.24976563 22.14632812 13.86328125 21.19140625 C13.35152344 19.99386719 12.83976562 18.79632813 12.3125 17.5625 C11.81363281 16.36753906 11.31476563 15.17257813 10.80078125 13.94140625 C9.29630805 10.77723199 9.29630805 10.77723199 6.29296875 10.08984375 C5.53628906 10.06019531 4.77960938 10.03054687 4 10 C4 8.02 4 6.04 4 4 C3.01 4 2.02 4 1 4 C1 6.31 1 8.62 1 11 C0.67 11 0.34 11 0 11 C0 7.37 0 3.74 0 0 Z " fill="#F9971B" transform="translate(263,226)"/>
<path d="M0 0 C0.33 1.32 0.66 2.64 1 4 C0.01 4.33 -0.98 4.66 -2 5 C-2.34342449 6.33076989 -2.67619874 7.66431979 -3 9 C-3.99 9.66 -4.98 10.32 -6 11 C-6.93992236 13.00999544 -6.93992236 13.00999544 -7.5625 15.3125 C-8.57426275 18.61404161 -9.66301003 21.81179315 -11 25 C-11.99 25 -12.98 25 -14 25 C-11.39814618 14.54410297 -7.66836659 7.50520985 0 0 Z " fill="#F8851E" transform="translate(35,226)"/>
<path d="M0 0 C3 1 3 1 4 3 C4.0716735 5.55157655 4.09308442 8.07472971 4.0625 10.625 C4.05798828 11.33140625 4.05347656 12.0378125 4.04882812 12.765625 C4.03703875 14.51045275 4.01910324 16.255237 4 18 C3.67 18 3.34 18 3 18 C3 15.69 3 13.38 3 11 C2.34 12.65 1.68 14.3 1 16 C0.34 16 -0.32 16 -1 16 C-1.02685095 13.52076199 -1.04676547 11.0418116 -1.0625 8.5625 C-1.07506836 7.50192383 -1.07506836 7.50192383 -1.08789062 6.41992188 C-1.09653588 4.61306441 -1.05220011 2.80612397 -1 1 C-0.67 0.67 -0.34 0.34 0 0 Z " fill="#F9FAF1" transform="translate(257,29)"/>
<path d="M0 0 C0.33 0 0.66 0 1 0 C1.94817196 5.61317798 2.1918078 11.06154388 2.1875 16.75 C2.18814453 17.62946289 2.18878906 18.50892578 2.18945312 19.41503906 C2.13786837 25.77168747 1.5869672 31.82216338 0 38 C-0.33 38 -0.66 38 -1 38 C-1.10768094 25.28867976 -1.12089545 12.67012175 0 0 Z " fill="#EA0C05" transform="translate(279,37)"/>
<path d="M0 0 C0.99 0 1.98 0 3 0 C3.76214036 10.35694312 4.13430792 20.6135207 4 31 C3.34 31.33 2.68 31.66 2 32 C0.59707634 29.19415269 0.90587608 26.88428204 0.9375 23.75 C0.94523437 22.5021875 0.95296875 21.254375 0.9609375 19.96875 C0.98697917 17.32291667 1.01302083 14.67708333 1.0390625 12.03125 C1.04679687 10.7834375 1.05453125 9.535625 1.0625 8.25 C1.07990234 6.52523437 1.07990234 6.52523437 1.09765625 4.765625 C1.19311465 2.0400861 1.19311465 2.0400861 0 0 Z " fill="#F6FFF4" transform="translate(42,192)"/>
<path d="M0 0 C0.33 0 0.66 0 1 0 C1.125 5.75 1.125 5.75 0 8 C-0.66 8 -1.32 8 -2 8 C-2 8.66 -2 9.32 -2 10 C-3.96722008 11.38123963 -5.96868328 12.71488126 -8 14 C-8.33 14.33 -8.66 14.66 -9 15 C-8.67 15.66 -8.34 16.32 -8 17 C-7.34 17 -6.68 17 -6 17 C-6 17.99 -6 18.98 -6 20 C-6.7734375 19.566875 -6.7734375 19.566875 -7.5625 19.125 C-10.62356725 17.71219973 -13.74944918 16.8751483 -17 16 C-17 15.34 -17 14.68 -17 14 C-16.40832031 13.84144531 -15.81664063 13.68289062 -15.20703125 13.51953125 C-8.39497469 11.50814098 -4.6902483 9.08907448 -1.1875 2.6875 C-0.795625 1.800625 -0.40375 0.91375 0 0 Z " fill="#FBC7BF" transform="translate(35,121)"/>
<path d="M0 0 C2.125 1.25 2.125 1.25 2.9375 3.875 C2.999375 4.65875 3.06125 5.4425 3.125 6.25 C3.785 6.25 4.445 6.25 5.125 6.25 C5.125 8.89 5.125 11.53 5.125 14.25 C3.125 11.25 3.125 11.25 2.3125 8.8125 C0.75936234 5.46099242 -0.7183599 4.17143311 -3.875 2.25 C-6.57733303 1.64836742 -9.09723595 1.43832299 -11.875 1.25 C-11.875 0.59 -11.875 -0.07 -11.875 -0.75 C-8.12216265 -2.62641867 -3.90597121 -1.01894901 0 0 Z " fill="#DC1D1B" transform="translate(11.875,145.75)"/>
<path d="M0 0 C1 2 1 2 -0.0625 5.375 C-1.87377928 9.30900025 -4.09079646 11.04539823 -8 13 C-11.875 13.75 -11.875 13.75 -15 14 C-15 13.01 -15 12.02 -15 11 C-13.68 10.34 -12.36 9.68 -11 9 C-11 8.34 -11 7.68 -11 7 C-6.545 6.505 -6.545 6.505 -2 6 C-1.34 4.02 -0.68 2.04 0 0 Z " fill="#E80A0C" transform="translate(33,121)"/>
<path d="M0 0 C0.66 0 1.32 0 2 0 C2 5.94 2 11.88 2 18 C-2.62 18 -7.24 18 -12 18 C-8.69756694 14.69756694 -4.55028914 15.35002224 0 15 C0 10.05 0 5.1 0 0 Z " fill="#F1B337" transform="translate(64,0)"/>
<path d="M0 0 C15.18 0 30.36 0 46 0 C46 1.32 46 2.64 46 4 C44.35 4 42.7 4 41 4 C41 3.01 41 2.02 41 1 C27.47 1 13.94 1 0 1 C0 0.67 0 0.34 0 0 Z " fill="#969696" transform="translate(112,71)"/>
<path d="M0 0 C2 2 2 2 2 5 C1.01 5 0.02 5 -1 5 C-1.33 18.2 -1.66 31.4 -2 45 C-2.33 45 -2.66 45 -3 45 C-3.07448116 39.71642089 -3.12875795 34.43315137 -3.16479492 29.14916992 C-3.17982716 27.35386833 -3.20025857 25.55860312 -3.22631836 23.76342773 C-3.26294786 21.17422474 -3.2797821 18.58550972 -3.29296875 15.99609375 C-3.30845261 15.20101913 -3.32393646 14.40594452 -3.33988953 13.58677673 C-3.34146092 8.31447527 -2.37810321 4.71506276 0 0 Z " fill="#D81114" transform="translate(22,19)"/>
<path d="M0 0 C0.33 0 0.66 0 1 0 C1.03738281 1.07378906 1.07476562 2.14757812 1.11328125 3.25390625 C1.17899112 4.6901362 1.24543668 6.12633262 1.3125 7.5625 C1.33505859 8.26697266 1.35761719 8.97144531 1.38085938 9.69726562 C1.70407448 16.07341823 3.42384728 20.63577092 7 26 C4.50638429 24.79618552 2.31856917 23.54571278 0 22 C-0.91300909 19.26097274 -1.12846608 17.6255173 -1.1328125 14.8046875 C-1.13410156 14.00675781 -1.13539062 13.20882812 -1.13671875 12.38671875 C-1.13285156 11.55785156 -1.12898438 10.72898438 -1.125 9.875 C-1.12886719 9.03839844 -1.13273437 8.20179688 -1.13671875 7.33984375 C-1.12664874 1.12664874 -1.12664874 1.12664874 0 0 Z " fill="#FEF7D0" transform="translate(39,225)"/>
<path d="M0 0 C2 1 2 1 3.11279297 2.95776367 C4.35826551 7.22849382 4.24647111 11.25061151 4.1953125 15.67578125 C4.1924826 16.6009404 4.18965271 17.52609955 4.18673706 18.47929382 C4.17557392 21.42382942 4.15047637 24.36805688 4.125 27.3125 C4.11496521 29.31314664 4.10584023 31.31379806 4.09765625 33.31445312 C4.07564722 38.2097535 4.04114391 43.10482457 4 48 C3.67 48 3.34 48 3 48 C2.505 27.21 2.505 27.21 2 6 C1.34 6 0.68 6 0 6 C0 4.02 0 2.04 0 0 Z " fill="#E80C13" transform="translate(32,144)"/>
<path d="M0 0 C2.65320331 2.42248998 3.89182486 4.24115535 4.12025452 7.95524597 C4.11803391 8.69470963 4.11581329 9.43417328 4.11352539 10.19604492 C4.11344986 11.03668991 4.11337433 11.8773349 4.11329651 12.74345398 C4.10813522 13.64666885 4.10297394 14.54988373 4.09765625 15.48046875 C4.0962413 16.40845779 4.09482635 17.33644684 4.09336853 18.29255676 C4.08776937 21.25757058 4.07521704 24.22250899 4.0625 27.1875 C4.05748489 29.19726453 4.052922 31.20703025 4.04882812 33.21679688 C4.03780021 38.14456032 4.02053617 43.07226737 4 48 C3.67 48 3.34 48 3 48 C2.67 34.47 2.34 20.94 2 7 C1.34 7 0.68 7 0 7 C0 4.69 0 2.38 0 0 Z " fill="#FFF0ED" transform="translate(12,151)"/>
<path d="M0 0 C5.61 0 11.22 0 17 0 C15.61147985 2.77704031 14.03211518 3.03382737 11.1875 4.1875 C10.31480469 4.55230469 9.44210938 4.91710937 8.54296875 5.29296875 C5.85198664 6.04115271 4.584628 5.9458895 2 5 C2.33 4.01 2.66 3.02 3 2 C2.01 2 1.02 2 0 2 C0 1.34 0 0.68 0 0 Z " fill="#FBF7D7" transform="translate(32,0)"/>
<path d="M0 0 C0.33 0 0.66 0 1 0 C1 6.27 1 12.54 1 19 C0.01 19.33 -0.98 19.66 -2 20 C-2 15.38 -2 10.76 -2 6 C-2.66 5.67 -3.32 5.34 -4 5 C-3.01 5 -2.02 5 -1 5 C-0.67 3.35 -0.34 1.7 0 0 Z " fill="#F4AF32" transform="translate(37,225)"/>
<path d="M0 0 C1.65 0.33 3.3 0.66 5 1 C5 5 5 5 4 8 C4.66 8 5.32 8 6 8 C5.34 9.32 4.68 10.64 4 12 C2.0625 11.6875 2.0625 11.6875 0 11 C-0.33 10.01 -0.66 9.02 -1 8 C-0.34 8 0.32 8 1 8 C1 6.68 1 5.36 1 4 C0.34 3.67 -0.32 3.34 -1 3 C-0.67 2.01 -0.34 1.02 0 0 Z " fill="#EE0A07" transform="translate(281,130)"/>
<path d="M0 0 C0.33 0 0.66 0 1 0 C1.07476562 0.66386719 1.14953125 1.32773438 1.2265625 2.01171875 C2.0871441 8.16842277 2.0871441 8.16842277 5.625 13.0625 C9.6983916 15.40092851 12.35184056 15.75957796 17 16 C17 16.33 17 16.66 17 17 C12.38 17.33 7.76 17.66 3 18 C2.67 16.68 2.34 15.36 2 14 C1.649375 12.906875 1.29875 11.81375 0.9375 10.6875 C-0.00884126 6.96522436 -0.15599272 3.82182166 0 0 Z " fill="#DB2A28" transform="translate(283,109)"/>
<path d="M0 0 C1.79236067 0.47656412 3.58386897 0.95633498 5.375 1.4375 C6.37273438 1.70433594 7.37046875 1.97117187 8.3984375 2.24609375 C11 3 11 3 13 4 C13 4.66 13 5.32 13 6 C7.72 6 2.44 6 -3 6 C-2.67 5.34 -2.34 4.68 -2 4 C-1.01 4 -0.02 4 1 4 C0.67 2.68 0.34 1.36 0 0 Z " fill="#FBF3CA" transform="translate(35,266)"/>
<path d="M0 0 C0.33 0.66 0.66 1.32 1 2 C2.65 1.67 4.3 1.34 6 1 C5.03604358 6.20536466 4.13142051 10.61601129 1 15 C0.484375 15.763125 -0.03125 16.52625 -0.5625 17.3125 C-1.036875 17.869375 -1.51125 18.42625 -2 19 C-2.66 19 -3.32 19 -4 19 C-4 18.01 -4 17.02 -4 16 C-3.01 16 -2.02 16 -1 16 C-0.855625 15.195625 -0.71125 14.39125 -0.5625 13.5625 C0 11 0 11 1 10 C0.91036938 8.30858344 0.75422324 6.62040398 0.5625 4.9375 C0.40974609 3.55884766 0.40974609 3.55884766 0.25390625 2.15234375 C0.17011719 1.44207031 0.08632813 0.73179688 0 0 Z " fill="#FC9115" transform="translate(272,22)"/>
<path d="M0 0 C3.63 0.66 7.26 1.32 11 2 C11.33 3.65 11.66 5.3 12 7 C12.66 7 13.32 7 14 7 C14.78688445 9.77723925 15.11949924 12.22610077 15.09765625 15.109375 C15.09443359 15.86347656 15.09121094 16.61757813 15.08789062 17.39453125 C15.07951172 18.17183594 15.07113281 18.94914062 15.0625 19.75 C15.05798828 20.54277344 15.05347656 21.33554687 15.04882812 22.15234375 C15.03708565 24.10159508 15.01915146 26.05080738 15 28 C14.67 28 14.34 28 14 28 C13.96261719 27.02160156 13.92523438 26.04320313 13.88671875 25.03515625 C13.89619165 13.9452327 13.89619165 13.9452327 10 4 C7.60953335 2.99030831 5.53905798 2.57922436 2.9609375 2.31640625 C2.31382812 2.21199219 1.66671875 2.10757812 1 2 C0.67 1.34 0.34 0.68 0 0 Z " fill="#EEBC53" transform="translate(248,18)"/>
<path d="M0 0 C0 3 0 3 -2.4375 6 C-6.0305369 9.42234631 -10.10959636 11.20864377 -15 12 C-17.2734375 11.56640625 -17.2734375 11.56640625 -19 11 C-18.13117188 10.54109375 -17.26234375 10.0821875 -16.3671875 9.609375 C-15.21476562 8.99578125 -14.06234375 8.3821875 -12.875 7.75 C-11.73804688 7.14671875 -10.60109375 6.5434375 -9.4296875 5.921875 C-6.1504532 4.08430863 -3.09477 2.12589064 0 0 Z " fill="#FDE7AF" transform="translate(275,258)"/>
<path d="M0 0 C1.98 0 3.96 0 6 0 C2.25 3 2.25 3 0 3 C0 3.66 0 4.32 0 5 C-0.99 5.66 -1.98 6.32 -3 7 C-5.23363466 12.83226828 -5.57443893 18.80696648 -6 25 C-6.33 25 -6.66 25 -7 25 C-7.3690205 11.3667426 -7.3690205 11.3667426 -5 5 C-3.68 4.67 -2.36 4.34 -1 4 C-0.67 2.68 -0.34 1.36 0 0 Z " fill="#EDB741" transform="translate(44,18)"/>
<path d="M0 0 C0.33 0 0.66 0 1 0 C1.05425226 2.39614126 1.09379027 4.79103853 1.125 7.1875 C1.14175781 7.86103516 1.15851563 8.53457031 1.17578125 9.22851562 C1.23131979 14.92121641 0.12223078 18.31665383 -3 23 C-3.66 23 -4.32 23 -5 23 C-4.56219854 19.49758836 -3.83452985 16.43594095 -2.5 13.1875 C-0.78312814 8.85763293 -0.31029236 4.62228616 0 0 Z " fill="#FCEEBC" transform="translate(261,227)"/>
<path d="M0 0 C1 3 1 3 -0.125 5.9375 C-2.1740231 9.28423773 -3.63769337 10.98261602 -7 13 C-9.70224107 13.5977076 -12.22327615 13.81174754 -15 14 C-15 13.34 -15 12.68 -15 12 C-10.545 11.505 -10.545 11.505 -6 11 C-6 10.01 -6 9.02 -6 8 C-5.34 8 -4.68 8 -4 8 C-3.71125 7.05125 -3.4225 6.1025 -3.125 5.125 C-2 2 -2 2 0 0 Z " fill="#FECCC8" transform="translate(15,112)"/>
<path d="M0 0 C5.73491451 -0.88229454 8.76938812 1.49896975 13.2421875 4.6875 C13.82226562 5.120625 14.40234375 5.55375 15 6 C10.54186071 7.46328423 8.20442614 5.91780842 4 4 C1.22111387 3.30859478 1.22111387 3.30859478 -1 3 C-0.67 2.01 -0.34 1.02 0 0 Z " fill="#E0292C" transform="translate(17,137)"/>
<path d="M0 0 C5.75 0.875 5.75 0.875 8 2 C8 3.98 8 5.96 8 8 C3.71 8.99 -0.58 9.98 -5 11 C-0.96498481 6.96498481 0.67831192 6.22808186 6 5 C6 4.34 6 3.68 6 3 C4.02 2.34 2.04 1.68 0 1 C0 0.67 0 0.34 0 0 Z " fill="#DF2E33" transform="translate(274,132)"/>
<path d="M0 0 C0.99 0.33 1.98 0.66 3 1 C2.54109375 1.4846875 2.0821875 1.969375 1.609375 2.46875 C-2.59001468 7.05631856 -5.46488174 11.32133509 -8 17 C-9.13583456 13.28272326 -8.66670026 11.52948291 -7 8 C-6.34 8 -5.68 8 -5 8 C-5 6.35 -5 4.7 -5 3 C-3.35 2.67 -1.7 2.34 0 2 C0 1.34 0 0.68 0 0 Z " fill="#E51A00" transform="translate(32,226)"/>
<path d="M0 0 C0.33 0 0.66 0 1 0 C1.02505615 0.59949463 1.0501123 1.19898926 1.07592773 1.81665039 C1.19285773 4.56543324 1.31513947 7.31395375 1.4375 10.0625 C1.47681641 11.00544922 1.51613281 11.94839844 1.55664062 12.91992188 C1.78725396 18.01115478 2.1699127 22.97064756 3 28 C3.66 28 4.32 28 5 28 C4.67 29.32 4.34 30.64 4 32 C4 31.01 4 30.02 4 29 C3.01 28.67 2.02 28.34 1 28 C-0.35700647 25.28598706 -0.1123861 23.15153684 -0.09765625 20.1171875 C-0.09443359 18.95058594 -0.09121094 17.78398437 -0.08789062 16.58203125 C-0.07951172 15.35871094 -0.07113281 14.13539063 -0.0625 12.875 C-0.05798828 11.64394531 -0.05347656 10.41289062 -0.04882812 9.14453125 C-0.0370133 6.09630608 -0.02054028 3.04817686 0 0 Z " fill="#F7A69A" transform="translate(18,224)"/>
<path d="M0 0 C4.62 0 9.24 0 14 0 C14 0.66 14 1.32 14 2 C8.42567486 3.66251802 4.6932495 4.18609365 -1 3 C-0.67 2.01 -0.34 1.02 0 0 Z " fill="#F7FEE5" transform="translate(234,246)"/>
<path d="M0 0 C0.33 0 0.66 0 1 0 C1.33 3.3 1.66 6.6 2 10 C2.33 10 2.66 10 3 10 C3 12.64 3 15.28 3 18 C1.02 18.99 1.02 18.99 -1 20 C-0.67 13.4 -0.34 6.8 0 0 Z " fill="#EFB33D" transform="translate(262,226)"/>
<path d="M0 0 C5.75 1.875 5.75 1.875 8 3 C8 3.66 8 4.32 8 5 C2.555 7.475 2.555 7.475 -3 10 C-3 9.01 -3 8.02 -3 7 C-2.360625 6.731875 -1.72125 6.46375 -1.0625 6.1875 C1.33131686 5.11332248 1.33131686 5.11332248 2 2 C1.34 2 0.68 2 0 2 C0 1.34 0 0.68 0 0 Z " fill="#FDD9CE" transform="translate(272,132)"/>
<path d="M0 0 C0.33 0 0.66 0 1 0 C1.01981934 0.62455078 1.03963867 1.24910156 1.06005859 1.89257812 C1.15616932 4.76209381 1.26549487 7.63096547 1.375 10.5 C1.4059375 11.48226562 1.436875 12.46453125 1.46875 13.4765625 C1.70047539 19.26969718 2.36952223 24.43251492 4 30 C2.02441406 28.88745117 2.02441406 28.88745117 0 27 C-0.45410156 24.1809082 -0.45410156 24.1809082 -0.390625 20.80078125 C-0.37773437 19.59228516 -0.36484375 18.38378906 -0.3515625 17.13867188 C-0.31804687 15.87603516 -0.28453125 14.61339844 -0.25 13.3125 C-0.23195313 12.03826172 -0.21390625 10.76402344 -0.1953125 9.45117188 C-0.14810441 6.30003159 -0.08226384 3.1503886 0 0 Z " fill="#FFA2A2" transform="translate(262,96)"/>
<path d="M0 0 C-1.578076 0.84324672 -3.1627042 1.67423918 -4.75 2.5 C-6.07257813 3.19609375 -6.07257813 3.19609375 -7.421875 3.90625 C-10 5 -10 5 -14 5 C-14 5.66 -14 6.32 -14 7 C-15.32 7 -16.64 7 -18 7 C-18 6.34 -18 5.68 -18 5 C-17.34 5 -16.68 5 -16 5 C-16 4.34 -16 3.68 -16 3 C-11.545 2.505 -11.545 2.505 -7 2 C-7 1.34 -7 0.68 -7 0 C-3.86650268 -1.04449911 -3.01031744 -0.93423645 0 0 Z " fill="#F1BA40" transform="translate(266,265)"/>
<path d="M0 0 C-1.3125 1.5 -1.3125 1.5 -3 3 C-3.99 3 -4.98 3 -6 3 C-6.2475 3.515625 -6.495 4.03125 -6.75 4.5625 C-8.39581616 7.77184151 -10.1976096 10.87585664 -12 14 C-12.6875 12.375 -12.6875 12.375 -13 10 C-11.5625 6.75 -11.5625 6.75 -10 4 C-9.34 4 -8.68 4 -8 4 C-8 3.34 -8 2.68 -8 2 C-4.77208445 -0.1519437 -3.71599191 -0.20086443 0 0 Z " fill="#FEF4D5" transform="translate(34,6)"/>
<path d="M0 0 C0 0.66 0 1.32 0 2 C-0.99 2 -1.98 2 -3 2 C-3.268125 2.680625 -3.53625 3.36125 -3.8125 4.0625 C-4.68704293 6.22584305 -5.61127679 8.36926002 -6.5625 10.5 C-7.75655869 13.40727333 -8.5322325 15.9127345 -9 19 C-9.33 19 -9.66 19 -10 19 C-10.36134972 13.21840447 -9.45790037 9.27993412 -7 4 C-6.01 3.67 -5.02 3.34 -4 3 C-4 2.34 -4 1.68 -4 1 C-2 0 -2 0 0 0 Z " fill="#FDF2B7" transform="translate(48,20)"/>
<path d="M0 0 C0.66 0 1.32 0 2 0 C6.71248522 7.76297789 6.41732107 15.20148083 6 24 C5.67 24 5.34 24 5 24 C4.96132813 22.58847656 4.96132813 22.58847656 4.921875 21.1484375 C4.53487244 11.80052353 4.53487244 11.80052353 0 4 C0 2.68 0 1.36 0 0 Z " fill="#FEEEBE" transform="translate(256,22)"/>
<path d="M0 0 C1.08657712 2.66705293 1.10903261 3.73423301 0 6.4375 C-2.61325444 9.78573224 -5.45897402 11.66158662 -9 14 C-9.66 13.67 -10.32 13.34 -11 13 C-9.6875 11 -9.6875 11 -8 9 C-7.01 9 -6.02 9 -5 9 C-5 8.34 -5 7.68 -5 7 C-4.01 7 -3.02 7 -2 7 C-2.04125 6.21625 -2.0825 5.4325 -2.125 4.625 C-2 2 -2 2 0 0 Z " fill="#E9B02B" transform="translate(277,250)"/>
<path d="M0 0 C0.33 0 0.66 0 1 0 C1.33 5.28 1.66 10.56 2 16 C2.66 16 3.32 16 4 16 C3.67 18.31 3.34 20.62 3 23 C0.44729911 20.44729911 0.08636931 18.53273025 -0.11352539 14.98535156 C-0.10828857 14.2940918 -0.10305176 13.60283203 -0.09765625 12.890625 C-0.09443359 12.13652344 -0.09121094 11.38242188 -0.08789062 10.60546875 C-0.07951172 9.82816406 -0.07113281 9.05085937 -0.0625 8.25 C-0.05798828 7.45722656 -0.05347656 6.66445312 -0.04882812 5.84765625 C-0.03708565 3.89840492 -0.01915146 1.94919262 0 0 Z " fill="#C61D14" transform="translate(19,228)"/>
<path d="M0 0 C1 2 1 2 1 6 C1.66 6.66 2.32 7.32 3 8 C2.4225 7.835 1.845 7.67 1.25 7.5 C-1.26664369 6.85537969 -1.26664369 6.85537969 -5 7 C-7.66666667 7 -10.33333333 7 -13 7 C-13 6.67 -13 6.34 -13 6 C-12.31292969 5.81824219 -11.62585937 5.63648437 -10.91796875 5.44921875 C-10.01691406 5.19785156 -9.11585937 4.94648437 -8.1875 4.6875 C-7.29417969 4.44386719 -6.40085937 4.20023437 -5.48046875 3.94921875 C-2.94752262 2.9799181 -1.7283504 2.04990396 0 0 Z " fill="#D8211A" transform="translate(13,120)"/>
<path d="M0 0 C0.66 0 1.32 0 2 0 C2 4.62 2 9.24 2 14 C3.32 14.33 4.64 14.66 6 15 C4.68799596 16.35432675 3.35368596 17.68733482 2 19 C1.67 19 1.34 19 1 19 C0.67 12.73 0.34 6.46 0 0 Z " fill="#F49C23" transform="translate(262,27)"/>
<path d="M0 0 C0.33 0 0.66 0 1 0 C1 7.59 1 15.18 1 23 C0.34 23.33 -0.32 23.66 -1 24 C-1.33 22.35 -1.66 20.7 -2 19 C-1.34 19 -0.68 19 0 19 C0 12.73 0 6.46 0 0 Z " fill="#CC261D" transform="translate(280,224)"/>
<path d="M0 0 C0.99 0.33 1.98 0.66 3 1 C2.34 1.66 1.68 2.32 1 3 C-0.32 3 -1.64 3 -3 3 C-3 3.66 -3 4.32 -3 5 C-5.97 5 -8.94 5 -12 5 C-12 4.34 -12 3.68 -12 3 C-11.30132812 2.86722656 -10.60265625 2.73445313 -9.8828125 2.59765625 C-8.51769531 2.33275391 -8.51769531 2.33275391 -7.125 2.0625 C-6.22007812 1.88847656 -5.31515625 1.71445312 -4.3828125 1.53515625 C-2.00043683 1.10036299 -2.00043683 1.10036299 0 0 Z " fill="#FEF6EB" transform="translate(264,267)"/>
<path d="M0 0 C0.66 0 1.32 0 2 0 C2.66 1.98 3.32 3.96 4 6 C4.66 6 5.32 6 6 6 C5.67 9.63 5.34 13.26 5 17 C4.67 17 4.34 17 4 17 C3.87882812 16.27554688 3.75765625 15.55109375 3.6328125 14.8046875 C2.75060421 9.71502427 1.83557653 4.85116654 0 0 Z " fill="#FED7D4" transform="translate(33,144)"/>
<path d="M0 0 C3.26008643 3.16952847 6.22237877 6.39937989 9 10 C6.23723823 9.47731534 3.6739124 8.89130413 1 8 C0.67 5.36 0.34 2.72 0 0 Z " fill="#E52902" transform="translate(27,32)"/>
<path d="M0 0 C0 0.99 0 1.98 0 3 C-0.79664063 3.38091797 -0.79664063 3.38091797 -1.609375 3.76953125 C-5.3324172 5.58349524 -8.79762215 7.3313518 -12 10 C-9.46379549 4.74643351 -6.5289413 0 0 0 Z " fill="#EDC856" transform="translate(36,6)"/>
<path d="M0 0 C2 2 2 2 2 5 C1.01 5 0.02 5 -1 5 C-0.95875 6.093125 -0.9175 7.18625 -0.875 8.3125 C-1 12 -1 12 -3 15 C-3.3152595 9.01006953 -2.68219822 5.36439644 0 0 Z " fill="#CF2E22" transform="translate(22,19)"/>
<path d="M0 0 C0.268125 0.598125 0.53625 1.19625 0.8125 1.8125 C2.71162349 5.31088537 4.20036361 6.73345454 8 8 C8.33 9.65 8.66 11.3 9 13 C1.51928251 8.34798206 1.51928251 8.34798206 0.24609375 5.04296875 C0 3.125 0 3.125 0 0 Z " fill="#EBB530" transform="translate(23,251)"/>
<path d="M0 0 C3.38325552 2.25550368 3.78739152 3.30929259 5.1875 7 C5.53167969 7.886875 5.87585938 8.77375 6.23046875 9.6875 C7 12 7 12 7 14 C6.34 14 5.68 14 5 14 C4.16235732 12.04350603 3.33000941 10.08474444 2.5 8.125 C2.0359375 7.03445312 1.571875 5.94390625 1.09375 4.8203125 C0 2 0 2 0 0 Z " fill="#F78517" transform="translate(273,236)"/>
<path d="M0 0 C0.66 0 1.32 0 2 0 C2 0.99 2 1.98 2 3 C4.97 3.495 4.97 3.495 8 4 C8.33 5.32 8.66 6.64 9 8 C5.81390075 7.64598897 4.20933322 7.16972964 1.6875 5.125 C0 3 0 3 0 0 Z " fill="#E0181B" transform="translate(267,124)"/>
<path d="M0 0 C0.99 0.33 1.98 0.66 3 1 C2.88590407 2.45922693 2.75834456 3.91740598 2.625 5.375 C2.55539062 6.18710938 2.48578125 6.99921875 2.4140625 7.8359375 C2 10 2 10 0 12 C0 8.04 0 4.08 0 0 Z " fill="#EA0B00" transform="translate(268,112)"/>
<path d="M0 0 C0.66 0 1.32 0 2 0 C1.67 4.62 1.34 9.24 1 14 C-3 12 -3 12 -4 9 C-3.01 9 -2.02 9 -1 9 C-0.67 6.03 -0.34 3.06 0 0 Z " fill="#F69B21" transform="translate(36,28)"/>
<path d="M0 0 C3.63 0 7.26 0 11 0 C11 0.66 11 1.32 11 2 C7.7 2.33 4.4 2.66 1 3 C0.67 2.01 0.34 1.02 0 0 Z " fill="#F4FEF6" transform="translate(53,20)"/>
<path d="M0 0 C0.625 1.875 0.625 1.875 1 4 C-1.73704754 6.73704754 -4.26044774 7.16182449 -8 8 C-10.2265625 7.55078125 -10.2265625 7.55078125 -12 7 C-10.95199219 6.74476563 -10.95199219 6.74476563 -9.8828125 6.484375 C-8.51769531 6.12085938 -8.51769531 6.12085938 -7.125 5.75 C-6.22007812 5.51796875 -5.31515625 5.2859375 -4.3828125 5.046875 C-1.85042396 4.20085821 -1.85042396 4.20085821 -0.6796875 1.890625 C-0.45539063 1.26671875 -0.23109375 0.6428125 0 0 Z " fill="#EBB137" transform="translate(260,246)"/>
<path d="M0 0 C1.8125 0.5625 1.8125 0.5625 4 2 C5.8125 5.5 5.8125 5.5 7 9 C6.67 9.66 6.34 10.32 6 11 C5.34 11 4.68 11 4 11 C3.52014033 9.72942818 3.0411407 8.45853152 2.5625 7.1875 C2.16224609 6.12595703 2.16224609 6.12595703 1.75390625 5.04296875 C1.13774814 3.37327604 0.56280765 1.68842296 0 0 Z " fill="#F4B039" transform="translate(272,12)"/>
<path d="M0 0 C0.33 0 0.66 0 1 0 C1 2.31 1 4.62 1 7 C1.66 7 2.32 7 3 7 C2.67 9.31 2.34 11.62 2 14 C1.34 14 0.68 14 0 14 C-1.03115279 10.73086376 -0.9638984 8.13958652 -0.5625 4.75 C-0.46066406 3.85796875 -0.35882812 2.9659375 -0.25390625 2.046875 C-0.17011719 1.37140625 -0.08632813 0.6959375 0 0 Z " fill="#F00805" transform="translate(21,230)"/>
<path d="M0 0 C1.65 0 3.3 0 5 0 C5 1.65 5 3.3 5 5 C3.35 5 1.7 5 0 5 C0 3.35 0 1.7 0 0 Z " fill="#AAAAAA" transform="translate(105,213)"/>
<path d="M0 0 C1.65 0 3.3 0 5 0 C5 1.65 5 3.3 5 5 C3.35 5 1.7 5 0 5 C0 3.35 0 1.7 0 0 Z " fill="#AAAAAA" transform="translate(105,194)"/>
<path d="M0 0 C3.3 0.33 6.6 0.66 10 1 C10.33 1.99 10.66 2.98 11 4 C7.31733897 3.40049704 3.65456815 2.75241109 0 2 C0 1.34 0 0.68 0 0 Z " fill="#FDEEB0" transform="translate(251,0)"/>
<path d="M0 0 C1.98 0 3.96 0 6 0 C6 1.32 6 2.64 6 4 C4.02 4 2.04 4 0 4 C0 2.68 0 1.36 0 0 Z " fill="#979797" transform="translate(153,176)"/>
<path d="M0 0 C2.475 0.495 2.475 0.495 5 1 C5 2.32 5 3.64 5 5 C3.35 5 1.7 5 0 5 C0 3.35 0 1.7 0 0 Z " fill="#A8A8A8" transform="translate(105,89)"/>
<path d="M0 0 C1.65 0 3.3 0 5 0 C4.67 1.65 4.34 3.3 4 5 C2.68 5 1.36 5 0 5 C0 3.35 0 1.7 0 0 Z " fill="#A7A7A7" transform="translate(105,71)"/>
<path d="M0 0 C3.81287042 1.44626119 5.32707177 3.30194812 7 7 C6.6875 9.3125 6.6875 9.3125 6 11 C5.566875 10.113125 5.13375 9.22625 4.6875 8.3125 C3.23215183 5.45570545 1.68372526 2.72603137 0 0 Z " fill="#E42300" transform="translate(271,232)"/>
<path d="M0 0 C0.33 1.32 0.66 2.64 1 4 C-0.98 4 -2.96 4 -5 4 C-5 3.34 -5 2.68 -5 2 C-5.66 1.67 -6.32 1.34 -7 1 C-4.50935112 0.31292445 -2.62113708 0 0 0 Z " fill="#F7B41F" transform="translate(53,268)"/>
<path d="M0 0 C2.475 0.495 2.475 0.495 5 1 C5 1.66 5 2.32 5 3 C5.66 3 6.32 3 7 3 C7.33 4.65 7.66 6.3 8 8 C7.67 7.34 7.34 6.68 7 6 C4.98330173 4.86649466 4.98330173 4.86649466 3 4 C3 3.34 3 2.68 3 2 C2.01 1.67 1.02 1.34 0 1 C0 0.67 0 0.34 0 0 Z " fill="#FEEDB0" transform="translate(269,8)"/>
<path d="M0 0 C3.3 1.65 6.6 3.3 10 5 C10 5.33 10 5.66 10 6 C7.03 5.67 4.06 5.34 1 5 C0.67 3.35 0.34 1.7 0 0 Z " fill="#E7B437" transform="translate(41,248)"/>
<path d="M0 0 C-0.33 0.66 -0.66 1.32 -1 2 C-3.64 2 -6.28 2 -9 2 C-9 1.34 -9 0.68 -9 0 C-5.93109813 -1.53445094 -3.29905734 -0.54984289 0 0 Z " fill="#DB2B20" transform="translate(9,145)"/>
<path d="M0 0 C0.33 0.66 0.66 1.32 1 2 C1.66 2.33 2.32 2.66 3 3 C-1.43076923 6.07692308 -1.43076923 6.07692308 -4.3125 5.6875 C-4.869375 5.460625 -5.42625 5.23375 -6 5 C-4.02 3.35 -2.04 1.7 0 0 Z " fill="#EDAF14" transform="translate(31,10)"/>
<path d="M0 0 C1.32 0 2.64 0 4 0 C4.33 0.99 4.66 1.98 5 3 C2.525 4.485 2.525 4.485 0 6 C0 4.02 0 2.04 0 0 Z " fill="#F7FFED" transform="translate(20,4)"/>
<path d="M0 0 C4.38889325 0.66498383 7.9811485 2.18757677 12 4 C9.5332355 4.88336837 8.36140628 5.1312406 5.859375 4.22265625 C5.16328125 3.83980469 4.4671875 3.45695312 3.75 3.0625 C3.04359375 2.68222656 2.3371875 2.30195313 1.609375 1.91015625 C1.07828125 1.60980469 0.5471875 1.30945313 0 1 C0 0.67 0 0.34 0 0 Z " fill="#EFB02C" transform="translate(34,264)"/>
<path d="M0 0 C0.99 0.33 1.98 0.66 3 1 C3 3.31 3 5.62 3 8 C2.01 8 1.02 8 0 8 C0 5.36 0 2.72 0 0 Z " fill="#F3FEF2" transform="translate(283,240)"/>
<path d="M0 0 C0.33 0.99 0.66 1.98 1 3 C1.66 3 2.32 3 3 3 C3 4.65 3 6.3 3 8 C2.01 7.67 1.02 7.34 0 7 C-0.38133299 5.0085944 -0.71325582 3.00720923 -1 1 C-0.67 0.67 -0.34 0.34 0 0 Z " fill="#EEFEFB" transform="translate(41,237)"/>
<path d="M0 0 C0.99 0.33 1.98 0.66 3 1 C2.02433888 2.16959987 1.044375 3.33561177 0.0625 4.5 C-0.48277344 5.1496875 -1.02804688 5.799375 -1.58984375 6.46875 C-2.05519531 6.9740625 -2.52054688 7.479375 -3 8 C-3.33 8 -3.66 8 -4 8 C-4 6.35 -4 4.7 -4 3 C-2.68 2.67 -1.36 2.34 0 2 C0 1.34 0 0.68 0 0 Z " fill="#DC2600" transform="translate(32,226)"/>
<path d="M0 0 C2 1 2 1 3.1875 3.3125 C4.03624754 6.11989571 3.99928333 7.301935 3 10 C2.67 8.68 2.34 7.36 2 6 C1.34 6 0.68 6 0 6 C0 4.02 0 2.04 0 0 Z " fill="#D13033" transform="translate(32,144)"/>
<path d="M0 0 C0.59296875 0.21527344 1.1859375 0.43054688 1.796875 0.65234375 C0.70241662 1.51891491 -0.40410281 2.37027099 -1.515625 3.21484375 C-2.13050781 3.69050781 -2.74539062 4.16617188 -3.37890625 4.65625 C-3.98089844 4.98496094 -4.58289063 5.31367188 -5.203125 5.65234375 C-6.193125 5.32234375 -7.183125 4.99234375 -8.203125 4.65234375 C-2.74543269 -0.43323317 -2.74543269 -0.43323317 0 0 Z " fill="#D6242A" transform="translate(30.203125,128.34765625)"/>
<path d="M0 0 C1.98 1.65 3.96 3.3 6 5 C5.01 5.66 4.02 6.32 3 7 C2.67 6.01 2.34 5.02 2 4 C1.01 4 0.02 4 -1 4 C-0.67 2.68 -0.34 1.36 0 0 Z " fill="#FDCBC8" transform="translate(266,126)"/>
<path d="M0 0 C1.65 0 3.3 0 5 0 C5 1.32 5 2.64 5 4 C3.35 4 1.7 4 0 4 C0 2.68 0 1.36 0 0 Z " fill="#A0A0A0" transform="translate(105,109)"/>
<path d="M0 0 C0.66 0 1.32 0 2 0 C2 0.99 2 1.98 2 3 C2.66 3 3.32 3 4 3 C5.38232443 4.62626404 6.71937515 6.2925002 8 8 C5.125 7.375 5.125 7.375 2 6 C0.625 2.875 0.625 2.875 0 0 Z " fill="#FEF1C0" transform="translate(20,253)"/>
<path d="M0 0 C0.99 0.495 0.99 0.495 2 1 C2 1.66 2 2.32 2 3 C2.66 3 3.32 3 4 3 C5.38938077 4.96147874 6.7260411 6.96166576 8 9 C5.50638429 7.79618552 3.31856917 6.54571278 1 5 C0.3125 2.375 0.3125 2.375 0 0 Z " fill="#F9DE86" transform="translate(38,242)"/>
<path d="M0 0 C0.99 0.66 1.98 1.32 3 2 C2.34 2 1.68 2 1 2 C1 2.99 1 3.98 1 5 C0.34 5 -0.32 5 -1 5 C-1 7.31 -1 9.62 -1 12 C-1.33 12 -1.66 12 -2 12 C-2.28571429 3.42857143 -2.28571429 3.42857143 0 0 Z " fill="#E50D08" transform="translate(284,148)"/>
<path d="M0 0 C2.95183101 2.95183101 3.08663988 5.95511947 4 10 C2 8.9375 2 8.9375 0 7 C-0.25 3.3125 -0.25 3.3125 0 0 Z " fill="#FCCBC8" transform="translate(262,116)"/>
<path d="M0 0 C-2 2 -2 2 -5.625 2.125 C-6.73875 2.08375 -7.8525 2.0425 -9 2 C-9 1.34 -9 0.68 -9 0 C-5.67465243 -1.10844919 -3.37817425 -0.84454356 0 0 Z " fill="#FAFCE9" transform="translate(54,22)"/>
<path d="M0 0 C0.66 0 1.32 0 2 0 C2.33 1.65 2.66 3.3 3 5 C2.01 5.33 1.02 5.66 0 6 C-0.38218767 4.34385343 -0.71395102 2.67542976 -1 1 C-0.67 0.67 -0.34 0.34 0 0 Z " fill="#F8FBF2" transform="translate(17,250)"/>
<path d="M0 0 C0.33 1.32 0.66 2.64 1 4 C0.01 4.33 -0.98 4.66 -2 5 C-2.73323796 7.01508358 -2.73323796 7.01508358 -3 9 C-3.66 9 -4.32 9 -5 9 C-3.90931332 5.22454612 -3.0916909 2.52956528 0 0 Z " fill="#FC941A" transform="translate(35,226)"/>
<path d="M0 0 C2.89932357 2.39509338 3.50168276 4.31245243 4 8 C2.68 7.67 1.36 7.34 0 7 C0 4.69 0 2.38 0 0 Z " fill="#FAC3C3" transform="translate(12,151)"/>
<path d="M0 0 C3.3 0 6.6 0 10 0 C10 0.99 10 1.98 10 3 C6.66666667 2.33333333 3.33333333 1.66666667 0 1 C0 0.67 0 0.34 0 0 Z " fill="#FAFCF7" transform="translate(256,0)"/>
<path d="M0 0 C-0.66 1.98 -1.32 3.96 -2 6 C-2.66 6 -3.32 6 -4 6 C-4.33 4.35 -4.66 2.7 -5 1 C-3 0 -3 0 0 0 Z " fill="#F3AF0E" transform="translate(36,258)"/>
<path d="M0 0 C0.6875 1.6875 0.6875 1.6875 1 4 C-0.4375 6.75 -0.4375 6.75 -2 9 C-3 7 -3 7 -2.125 3.9375 C-1 1 -1 1 0 0 Z " fill="#EBBA43" transform="translate(277,250)"/>
<path d="M0 0 C0.99 0 1.98 0 3 0 C3.33 1.98 3.66 3.96 4 6 C2.68 5.34 1.36 4.68 0 4 C0 2.68 0 1.36 0 0 Z " fill="#FBE5E0" transform="translate(29,138)"/>
<path d="M0 0 C1.65 0.33 3.3 0.66 5 1 C4.67 1.99 4.34 2.98 4 4 C2.35 3.67 0.7 3.34 -1 3 C-0.67 2.01 -0.34 1.02 0 0 Z " fill="#E11310" transform="translate(17,137)"/>
<path d="M0 0 C1.32 0.33 2.64 0.66 4 1 C4 2.32 4 3.64 4 5 C2.68 5 1.36 5 0 5 C0 3.35 0 1.7 0 0 Z " fill="#F4B401" transform="translate(264,36)"/>
<path d="M0 0 C1.98 0 3.96 0 6 0 C5.01 1.485 5.01 1.485 4 3 C1.375 3.1875 1.375 3.1875 -1 3 C-0.67 2.01 -0.34 1.02 0 0 Z " fill="#FFA600" transform="translate(250,5)"/>
</svg>
